<svg xmlns="http://www.w3.org/2000/svg" xmlns:xlink="http://www.w3.org/1999/xlink" width="47.094" height="50" viewBox="0 0 47.094 50"><defs><clipPath id="a"><rect width="47.094" height="50" transform="translate(0.453 0.395)" fill="#fff"/></clipPath></defs><g transform="translate(-0.453 -0.395)" clip-path="url(#a)"><path d="M8.33,11.23c2.573-2.393,5.158-4.775,7.715-7.187.975-.918,1.917-1.874,2.814-2.867A2.177,2.177,0,0,1,20.636.452c4.167.059,8.353-.278,12.5.223a15.342,15.342,0,0,1,8.007,3.614,16.863,16.863,0,0,1,5.848,9.273,17.161,17.161,0,0,1-2.84,14.679A17.856,17.856,0,0,1,35.342,34.6a1.974,1.974,0,0,1-2.314-.531c-3.3-3.272-6.722-6.431-10.065-9.667a1.4,1.4,0,0,1,1.464-.592c1.972-.021,3.944,0,5.916-.011a6.386,6.386,0,0,0,5.8-4,6.247,6.247,0,0,0-3.618-7.59,7.241,7.241,0,0,0-2.626-.417q-9.9.007-19.8,0H8.765c-.143-.187-.289-.371-.433-.558Z" fill="#1701fe"/><path d="M8.769,23.8c2.236,0,4.484.134,6.7-.05,1.41-.116,2.079.747,2.8,1.533,2.992,3.268,6.171,6.353,9.259,9.525,3.149,3.238,6.324,6.451,9.485,9.678q2.476,2.528,4.941,5.064c.173.178.5.305.382.629-.125.351-.458.168-.688.168-4.85.009-9.7,0-14.551.011a2.361,2.361,0,0,1-1.806-.751q-5.465-5.616-10.958-11.2c-2.389-2.434-4.793-4.855-7.18-7.292q-3.091-3.16-6.144-6.358c-.207-.219-.676-.412-.54-.749.178-.437.669-.191,1.016-.194,2.425-.018,4.85-.009,7.276-.011Z" fill="#1701fe"/></g></svg>