<svg xmlns="http://www.w3.org/2000/svg" xmlns:xlink="http://www.w3.org/1999/xlink" width="1892.993" height="119.234" viewBox="0 0 1892.993 119.234"><defs><clipPath id="a"><rect width="189.861" height="119.215" transform="translate(347.092 124.497)" fill="#fff"/></clipPath><clipPath id="b"><rect width="189.861" height="119.215" transform="translate(918.138 124.497)" fill="#fff"/></clipPath></defs><g transform="translate(27.187 -124.497)"><path d="M-5.163,197.86-14.429,241.6H-27.187L-4.556,135.282H30.075a34.74,34.74,0,0,1,12.151,1.975,24.945,24.945,0,0,1,9.113,5.164,21.825,21.825,0,0,1,5.772,8.05,24.433,24.433,0,0,1,2.126,10.177A39.3,39.3,0,0,1,56.5,175.381a32.858,32.858,0,0,1-8.05,11.847,37.089,37.089,0,0,1-12.607,7.9,48.183,48.183,0,0,1-16.708,2.734Zm2.582-11.847H20.2a33.479,33.479,0,0,0,10.328-1.519,24.646,24.646,0,0,0,8.2-4.557,21.6,21.6,0,0,0,5.468-7.29,23.5,23.5,0,0,0,1.974-9.721q0-8.05-4.708-11.847-4.557-3.949-13.214-3.95H5.621Zm100.9-50.731L83.434,205.759q-.456,2.43-.759,4.708a29.018,29.018,0,0,0-.3,4.1q0,17.619,18.683,17.619,11.391,0,18.682-6.683,7.443-6.683,10.177-19.745L144.8,135.282h12.758l-14.885,70.477q-3.95,18.985-14.429,28.555-10.329,9.417-29.011,9.417a37.756,37.756,0,0,1-12-1.823,26.817,26.817,0,0,1-9.417-5.316,27.363,27.363,0,0,1-6.076-8.809,31.345,31.345,0,0,1-2.126-12q0-2.582.152-5.164a43.8,43.8,0,0,1,1.063-5.772l14.733-69.565Zm134.164,32.2a27.048,27.048,0,0,0,.608-5.165,16.162,16.162,0,0,0-1.671-7.594,14.462,14.462,0,0,0-4.709-5.468,20.279,20.279,0,0,0-6.835-3.19,30.306,30.306,0,0,0-8.2-1.063,40.567,40.567,0,0,0-9.873,1.215,28.957,28.957,0,0,0-8.657,3.645,21.782,21.782,0,0,0-6.228,5.924,13.679,13.679,0,0,0-2.278,7.9,15.257,15.257,0,0,0,1.671,7.443,16.32,16.32,0,0,0,5.164,5.012,35.023,35.023,0,0,0,8.05,3.342q4.86,1.215,11.088,2.278,13.974,2.279,20.505,9.114,6.531,6.683,6.531,17.771a32.575,32.575,0,0,1-3.341,15.037,31.679,31.679,0,0,1-8.962,11.087,41.006,41.006,0,0,1-13.67,6.684,59.571,59.571,0,0,1-16.86,2.278,50.583,50.583,0,0,1-15.34-2.127,31.863,31.863,0,0,1-10.936-6.227,27.05,27.05,0,0,1-6.532-9.265,32.851,32.851,0,0,1-2.126-12,50.376,50.376,0,0,1,.911-9.266l.912-4.556h12.758l-.759,3.645a42.826,42.826,0,0,0-.911,8.354q0,10.025,6.075,14.885,6.076,4.708,17.467,4.709a35.963,35.963,0,0,0,10.481-1.519,29.405,29.405,0,0,0,8.961-4.253A22.145,22.145,0,0,0,222,219.277a17.543,17.543,0,0,0,2.43-9.114,16.625,16.625,0,0,0-1.367-7.138,10.907,10.907,0,0,0-4.1-5.013,24.11,24.11,0,0,0-7.6-3.493c-3.037-.911-11.087-2.43-11.087-2.43a120.32,120.32,0,0,1-11.7-3.038,31.029,31.029,0,0,1-8.961-5.164,22.724,22.724,0,0,1-5.924-7.595,24.9,24.9,0,0,1-2.127-10.632,29.292,29.292,0,0,1,3.19-13.822,29.989,29.989,0,0,1,8.658-10.177,41.089,41.089,0,0,1,13.062-6.227,56.29,56.29,0,0,1,16.252-2.278,43.581,43.581,0,0,1,14.126,2.126,31.586,31.586,0,0,1,10.48,5.772,25.206,25.206,0,0,1,6.532,8.506,24.034,24.034,0,0,1,2.278,10.328q0,1.52-.152,3.038t-.456,3.038l-1.215,5.468H231.573Zm41.208-32.2h13.063L276.73,182.368h41.921l10.025-47.086h13.063L319.107,241.6H306.045l10.024-47.389H274.148L264.123,241.6h-12.91Z" fill="#fff"/><g clip-path="url(#a)"><path d="M384.763,124.761c10.129,0,20.31.6,30.367-.225,6.386-.519,9.418,3.341,12.688,6.854,13.554,14.615,27.954,28.414,41.942,42.6,14.266,14.481,28.645,28.851,42.963,43.282q11.217,11.3,22.384,22.65c.783.794,2.248,1.364,1.732,2.81-.567,1.569-2.073.754-3.115.754-21.971.041-43.942,0-65.914.051a10.766,10.766,0,0,1-8.18-3.361q-24.756-25.113-49.636-50.106c-10.821-10.886-21.714-21.712-32.524-32.609-9.325-9.421-18.63-18.871-27.82-28.434-.939-.968-3.064-1.833-2.445-3.351.8-1.955,3.033-.855,4.6-.866C362.791,124.73,373.777,124.771,384.763,124.761Z" fill="#1701fe"/></g><path d="M577.882,204.24h-2.734l-18.531-68.958h13.215L584.717,193.3h1.823l39.491-58.022h14.733v.911L593.375,204.24h-2.734l-7.9,37.364H569.984ZM646.734,176.6q4.406-21.264,15.493-32.352,11.239-11.088,30.074-11.088,14.733,0,22.479,8.5,7.9,8.355,7.9,23.239a50.643,50.643,0,0,1-.456,6.532,56.244,56.244,0,0,1-1.063,6.835l-4.709,22.024q-4.4,21.264-15.644,32.352-11.088,11.088-29.923,11.088-14.733,0-22.631-8.354-7.746-8.5-7.746-23.391,0-3.037.3-6.379.456-3.493,1.215-6.987Zm25.973,55.591a26.86,26.86,0,0,0,11.24-2.278,27.7,27.7,0,0,0,8.961-6.683A38.19,38.19,0,0,0,699.44,212.9a70.6,70.6,0,0,0,4.4-13.518l4.861-22.783a55.144,55.144,0,0,0,1.215-10.632q0-9.873-4.861-15.493-4.86-5.772-14.581-5.772-12.606,0-20.353,8.962-7.594,8.961-10.784,23.846l-4.861,22.784a55.136,55.136,0,0,0-1.215,10.632q0,9.873,4.861,15.644Q662.986,232.187,672.707,232.187Zm89.661-96.9-14.885,70.477q-.456,2.43-.76,4.708a29.084,29.084,0,0,0-.3,4.1q0,17.619,18.682,17.619,11.391,0,18.682-6.683,7.443-6.683,10.177-19.745l14.885-70.477H821.6L806.72,205.759q-3.949,18.985-14.43,28.555-10.329,9.417-29.011,9.417a37.753,37.753,0,0,1-12-1.823,26.822,26.822,0,0,1-9.417-5.316,27.358,27.358,0,0,1-6.076-8.809,31.359,31.359,0,0,1-2.126-12q0-2.582.152-5.164a43.77,43.77,0,0,1,1.063-5.772l14.733-69.565ZM889.09,241.6H876.331l7.6-35.542a12.045,12.045,0,0,0,.3-2.885,5.04,5.04,0,0,0-1.519-3.95q-1.367-1.367-4.86-1.367H844.283L835.017,241.6H822.259L844.89,135.282h36q13.518,0,20.96,6.835,7.594,6.835,7.595,19.138a28.589,28.589,0,0,1-5.316,17.315,33.178,33.178,0,0,1-14.43,11.088v1.823a8.712,8.712,0,0,1,5.924,2.582,8.006,8.006,0,0,1,2.126,5.924,15.268,15.268,0,0,1-.455,3.341Zm-42.225-55.591h23.391a32.025,32.025,0,0,0,10.48-1.671,25.532,25.532,0,0,0,8.354-5.012,23.247,23.247,0,0,0,5.468-7.443,21.731,21.731,0,0,0,1.974-9.265q0-7.594-4.556-11.543t-13.518-3.95H855.067Z" fill="#fff"/><g clip-path="url(#b)"><path d="M955.808,124.761c10.13,0,20.311.6,30.368-.225,6.385-.519,9.418,3.341,12.688,6.854,13.556,14.615,27.956,28.414,41.946,42.6,14.26,14.481,28.64,28.851,42.96,43.282q11.22,11.3,22.38,22.65c.79.794,2.25,1.364,1.74,2.81-.57,1.569-2.08.754-3.12.754-21.97.041-43.94,0-65.91.051a10.766,10.766,0,0,1-8.18-3.361q-24.765-25.113-49.641-50.106c-10.82-10.886-21.713-21.712-32.523-32.609-9.325-9.421-18.63-18.871-27.82-28.434-.939-.968-3.064-1.833-2.445-3.351.8-1.955,3.032-.855,4.6-.866C933.837,124.73,944.823,124.771,955.808,124.761Z" fill="#1701fe"/></g><path d="M1139.35,135.282h12.76l-20.05,94.475h54.68V241.6h-70.02Zm89.06,0h65.61v11.847h-26.43l-17.46,82.628h26.43V241.6h-65.62V229.757h26.43l17.46-82.628h-26.42Zm90.72,0h24.15l-8.81,100.854h1.82l33.27-100.854h24.91L1371.84,241.6h-11.85L1381.4,140.75h-1.82L1346.32,241.6h-23.39l8.66-100.854h-1.83L1308.35,241.6h-11.7Zm95.28,0h65.62v11.847H1453.6l-17.47,82.628h26.43V241.6h-65.62V229.757h26.43l17.47-82.628h-26.43Zm86.32,0h76.4v11.847H1546.3L1526.25,241.6h-12.76l20.05-94.475h-32.81Zm152.85,32.2a27.366,27.366,0,0,0,.6-5.165,16.09,16.09,0,0,0-1.67-7.594,14.448,14.448,0,0,0-4.7-5.468,20.388,20.388,0,0,0-6.84-3.19,30.322,30.322,0,0,0-8.2-1.063,40.543,40.543,0,0,0-9.87,1.215,28.965,28.965,0,0,0-8.66,3.645,21.816,21.816,0,0,0-6.23,5.924,13.673,13.673,0,0,0-2.28,7.9,15.3,15.3,0,0,0,1.67,7.443,16.373,16.373,0,0,0,5.17,5.012,34.857,34.857,0,0,0,8.05,3.342q4.86,1.215,11.09,2.278,13.965,2.279,20.5,9.114,6.525,6.683,6.53,17.771a32.537,32.537,0,0,1-3.34,15.037,31.683,31.683,0,0,1-8.96,11.087,41.081,41.081,0,0,1-13.67,6.684,59.631,59.631,0,0,1-16.86,2.278,50.566,50.566,0,0,1-15.34-2.127,31.863,31.863,0,0,1-10.94-6.227,27.141,27.141,0,0,1-6.53-9.265,32.791,32.791,0,0,1-2.13-12,50.158,50.158,0,0,1,.92-9.266l.91-4.556h12.76l-.76,3.645a42.721,42.721,0,0,0-.92,8.354q0,10.025,6.08,14.885,6.075,4.708,17.47,4.709a35.977,35.977,0,0,0,10.48-1.519,29.423,29.423,0,0,0,8.96-4.253,22.2,22.2,0,0,0,6.23-6.835,17.543,17.543,0,0,0,2.43-9.114,16.64,16.64,0,0,0-1.37-7.138,10.93,10.93,0,0,0-4.1-5.013,24.09,24.09,0,0,0-7.6-3.493,88.64,88.64,0,0,0-11.08-2.43,63.66,63.66,0,0,1-11.7-3.038,31.05,31.05,0,0,1-8.96-5.164,22.634,22.634,0,0,1-5.92-7.595,24.871,24.871,0,0,1-2.13-10.632,29.245,29.245,0,0,1,3.19-13.822,29.983,29.983,0,0,1,8.66-10.177,41.027,41.027,0,0,1,13.06-6.227,56.267,56.267,0,0,1,16.25-2.278,43.58,43.58,0,0,1,14.13,2.126,31.655,31.655,0,0,1,10.48,5.772,25.288,25.288,0,0,1,6.53,8.506,24.021,24.021,0,0,1,2.28,10.328q0,1.52-.15,3.038c-.11,1.012-.26,2.025-.46,3.038l-1.22,5.468h-12.75Z" fill="#fff"/><g transform="translate(757.807)" clip-path="url(#b)"><path d="M955.808,124.761c10.13,0,20.311.6,30.368-.225,6.385-.519,9.418,3.341,12.688,6.854,13.556,14.615,27.956,28.414,41.946,42.6,14.26,14.481,28.64,28.851,42.96,43.282q11.22,11.3,22.38,22.65c.79.794,2.25,1.364,1.74,2.81-.57,1.569-2.08.754-3.12.754-21.97.041-43.94,0-65.91.051a10.766,10.766,0,0,1-8.18-3.361q-24.765-25.113-49.641-50.106c-10.82-10.886-21.713-21.712-32.523-32.609-9.325-9.421-18.63-18.871-27.82-28.434-.939-.968-3.064-1.833-2.445-3.351.8-1.955,3.032-.855,4.6-.866C933.837,124.73,944.823,124.771,955.808,124.761Z" fill="#1701fe"/></g></g></svg>