<svg xmlns="http://www.w3.org/2000/svg" xmlns:xlink="http://www.w3.org/1999/xlink" width="16" height="16" viewBox="0 0 16 16"><defs><clipPath id="a"><rect width="16" height="16" transform="translate(0 0.395)" fill="#fff"/></clipPath></defs><g transform="translate(0 -0.395)" clip-path="url(#a)"><path d="M8,.4a6.667,6.667,0,0,1,6.667,6.667c0,4.966-6.04,9.05-6.3,9.221a.667.667,0,0,1-.74,0c-.257-.171-6.3-4.255-6.3-9.221A6.667,6.667,0,0,1,8,.4ZM8,14.91c1.264-.938,5.334-4.238,5.334-7.847a5.333,5.333,0,0,0-10.667,0C2.667,10.679,6.735,13.973,8,14.91Z"/><path d="M8,9.729a2.667,2.667,0,1,1,2.667-2.667A2.67,2.67,0,0,1,8,9.729Zm0-4A1.333,1.333,0,1,0,9.333,7.062,1.335,1.335,0,0,0,8,5.729Z"/></g></svg>