<svg xmlns="http://www.w3.org/2000/svg" xmlns:xlink="http://www.w3.org/1999/xlink" width="52.5" height="46.829" viewBox="0 0 52.5 46.829"><defs><clipPath id="a"><rect width="52.5" height="46.829" fill="none"/></clipPath></defs><g clip-path="url(#a)"><g transform="translate(-13.916 -17.613)"><path d="M60.172,34.441H58.916a1.144,1.144,0,0,0,0-.356,16.744,16.744,0,0,0-4.181-8.419,16.481,16.481,0,0,0-5.287-3.75,4.369,4.369,0,0,0-2.606-3.056,17.887,17.887,0,0,0-13.125,0,4.369,4.369,0,0,0-2.606,3.056,16.406,16.406,0,0,0-5.269,3.75,16.875,16.875,0,0,0-4.425,8.625.411.411,0,0,0,0,.15H20.16a6.244,6.244,0,0,0-6.244,6.244V58.2a6.244,6.244,0,0,0,6.244,6.244H60.172A6.244,6.244,0,0,0,66.416,58.2V40.685a6.244,6.244,0,0,0-6.244-6.244ZM34.541,22.947a.637.637,0,0,1,.394-.619,13.967,13.967,0,0,1,5.231-1.012,14.172,14.172,0,0,1,5.213,1.012.675.675,0,0,1,.412.638v.225a.619.619,0,0,1-.263.525.694.694,0,0,1-.675.112,18.019,18.019,0,0,0-9.375,0,.713.713,0,0,1-.638-.112.675.675,0,0,1-.3-.525ZM28.41,28.216a12.318,12.318,0,0,1,3.225-2.475,4.328,4.328,0,0,0,.9.956,4.406,4.406,0,0,0,3.9.75,14.064,14.064,0,0,1,7.5,0,4.519,4.519,0,0,0,3.956-.75,4.63,4.63,0,0,0,.881-.937A12.321,12.321,0,0,1,52,28.235a13.294,13.294,0,0,1,3.169,6.206H25.26A13.292,13.292,0,0,1,28.41,28.216ZM62.666,58.2a2.513,2.513,0,0,1-2.494,2.494H20.16A2.513,2.513,0,0,1,17.666,58.2V40.685a2.512,2.512,0,0,1,2.494-2.494H60.172a2.512,2.512,0,0,1,2.494,2.494Z" fill="#1701fe"/><path d="M51.416,43.816h-22.5a1.875,1.875,0,0,0-1.875,1.875v3.544a9.581,9.581,0,0,0,9.581,9.581H43.71a9.581,9.581,0,0,0,9.581-9.581V45.691a1.875,1.875,0,0,0-1.875-1.875Zm-1.875,5.419a5.85,5.85,0,0,1-5.831,5.831H36.622a5.85,5.85,0,0,1-5.831-5.831V47.566h18.75Z" fill="#1701fe"/></g></g></svg>