<svg xmlns="http://www.w3.org/2000/svg" xmlns:xlink="http://www.w3.org/1999/xlink" width="80" height="80" viewBox="0 0 80 80"><defs><clipPath id="a"><rect width="80" height="80" transform="translate(0 0.066)" fill="#fff"/></clipPath></defs><g transform="translate(0 -0.066)" clip-path="url(#a)"><path d="M71.366,21.627,80,12.993l-3.5-3.5-5.2-.639-.58-5.142L67.074.066,58.439,8.7v9.251L55.871,20.52A33.815,33.815,0,0,0,0,46.152V80.066H10.859L15,74.259a33.867,33.867,0,0,0,37.667-.026l4.158,5.833H67.683V46.152h-.056A33.562,33.562,0,0,0,59.2,23.819l2.192-2.192ZM63.127,10.642l3.288-3.288.643,5.7,5.564.683-3.2,3.2h-6.3v-6.3ZM8.444,75.379H4.688V63.352A34.018,34.018,0,0,0,9.9,70.062q.68.68,1.393,1.315Zm54.552,0H59.239l-2.875-4.032q.693-.622,1.359-1.285A34.015,34.015,0,0,0,63,63.257Zm-.056-29.227A29.161,29.161,0,1,1,52.534,23.858L47.241,29.15a21.7,21.7,0,1,0,3.342,3.287L55.87,27.15A29,29,0,0,1,62.939,46.152Zm-24.693.242a4.44,4.44,0,1,1-4.439-4.682c.082,0,.165,0,.248.007a4.44,4.44,0,0,1,4.191,4.676Zm-.016-8.233a9.129,9.129,0,1,0-4.915,17.1c.17.009.34.014.509.014a9.128,9.128,0,0,0,7.787-13.871l5.638-5.638a17,17,0,1,1-3.35-3.279Z" fill="#fff"/></g></svg>