<svg xmlns="http://www.w3.org/2000/svg" width="30.001" height="30" viewBox="0 0 30.001 30"><g transform="translate(-1 -1.508)"><path d="M14,8.508h4a1,1,0,1,0,0-2H14a1,1,0,1,0,0,2Z" fill="#373737"/><path d="M9,8.508h1a1,1,0,1,0,0-2H9a1,1,0,1,0,0,2Z" fill="#373737"/><path d="M22,8.508h1a1,1,0,1,0,0-2H22a1,1,0,1,0,0,2Z" fill="#373737"/><path d="M17.5,26.508h-3a1,1,0,0,0,0,2h3a1,1,0,0,0,0-2Z" fill="#373737"/><path d="M30,29.508h-.5V8.358a1.036,1.036,0,0,0,.5.15.99.99,0,0,0,.77-.36,1,1,0,0,0-.13-1.41l-6-5a1,1,0,0,0-.64-.23H8a1,1,0,0,0-.64.23l-6,5a1.009,1.009,0,0,0-.13,1.41.983.983,0,0,0,1.27.2v21.16H2a1,1,0,0,0,0,2H30a1,1,0,0,0,0-2ZM4.5,6.728l3.86-3.22H23.64l3.86,3.22v22.78H26v-18a1,1,0,0,0-1-1H7a1,1,0,0,0-1,1v18H4.5Zm16,16.78h-9v-2h9Zm-8.5,2h8v4H12Zm10-.15a.988.988,0,0,0,.5-.85v-4a1,1,0,0,0-1-1h-11a1,1,0,0,0-1,1v4a1,1,0,0,0,.5.85v4.15H8v-13H24v13H22Zm2-10.85H8v-2H24Z" fill="#373737"/></g></svg>