<svg xmlns="http://www.w3.org/2000/svg" width="30" height="30" viewBox="0 0 30 30"><path d="M27.5.508h-9a2.5,2.5,0,0,0-2.5,2.5v1.87a12.7,12.7,0,0,0-3-.37,13,13,0,1,0,13,13,12.7,12.7,0,0,0-.37-3H27.5a2.5,2.5,0,0,0,2.5-2.5v-9A2.5,2.5,0,0,0,27.5.508Zm.5,2.5v1.5H26.25v-2H27.5A.5.5,0,0,1,28,3.008Zm-6.25-.5h2.5v3.46l-.84-.38a.956.956,0,0,0-.81,0l-.84.38V2.508Zm-3.25,0h1.25v2H18v-1.5A.5.5,0,0,1,18.5,2.508ZM9.13,7.228l.06.06a1,1,0,0,1-.24,1.6l-.77.4a1,1,0,0,0-.51.64.979.979,0,0,0,.14.8l3.12,4.69a.8.8,0,0,1,.11.62.772.772,0,0,1-.38.5.758.758,0,0,1-.51.09l-5.57-.86a1,1,0,0,0-1.14.82l-.36,2.12a.988.988,0,0,1-.89.82,11.357,11.357,0,0,1-.2-2.03A11,11,0,0,1,9.12,7.218ZM13,28.508a10.89,10.89,0,0,1-2.98-.42l-.04-.57a3.051,3.051,0,0,1,.99-2.49,3.106,3.106,0,0,1,2.57-.79l1.82.28a1,1,0,0,0,.78-.21l2.32-1.85a4.109,4.109,0,0,1,2.8-.89l1.91.11A11.006,11.006,0,0,1,13,28.5Zm11-11a11.422,11.422,0,0,1-.22,2.21l-2.4-.14a6.049,6.049,0,0,0-4.17,1.32l-1.97,1.57-1.38-.21A5.079,5.079,0,0,0,8,27.278a11.058,11.058,0,0,1-5.23-5.81,2.966,2.966,0,0,0,2.3-2.42l.19-1.14,4.6.71a2.795,2.795,0,0,0,2.75-4.31l-2.51-3.77a2.964,2.964,0,0,0,1.08-3.88,11.14,11.14,0,0,1,1.84-.17,10.986,10.986,0,0,1,3,.43v5.07a2.5,2.5,0,0,0,2.5,2.5h5.07a10.986,10.986,0,0,1,.43,3Zm3.5-5h-9a.5.5,0,0,1-.5-.5v-5.5h1.75v1a1,1,0,0,0,.46.84,1.031,1.031,0,0,0,.95.08L23,7.608l1.84.82a.978.978,0,0,0,.41.09.949.949,0,0,0,.54-.16,1.009,1.009,0,0,0,.46-.84v-1H28v5.5a.5.5,0,0,1-.5.5Z" transform="translate(0 -0.508)" fill="#373737"/></svg>