<svg xmlns="http://www.w3.org/2000/svg" width="24.53" height="22.058" viewBox="0 0 24.53 22.058"><path d="M24.236,15.693H7.953l.818-1.665L22.355,14a.95.95,0,0,0,.935-.782l1.881-10.53a.952.952,0,0,0-.932-1.118L6.957,1.515,6.81.82A.971.971,0,0,0,5.864.055H1.639a.965.965,0,0,0,0,1.93H5.082l.645,3.068,1.589,7.692L5.27,16.084A.967.967,0,0,0,6.05,17.62H7.767a2.806,2.806,0,1,0,5.048,1.687,2.831,2.831,0,0,0-.563-1.687h4.405A2.806,2.806,0,1,0,21.7,19.307a2.831,2.831,0,0,0-.563-1.687h3.1a.964.964,0,1,0,0-1.928ZM7.359,3.418,23.1,3.47l-1.542,8.635-12.368.022Zm2.65,16.754a.864.864,0,1,1,.611-.253A.866.866,0,0,1,10.009,20.171Zm8.889,0a.864.864,0,1,1,.611-.253A.866.866,0,0,1,18.9,20.171Z" transform="translate(-0.674 -0.055)" fill="#fff"/></svg>