<svg xmlns="http://www.w3.org/2000/svg" xmlns:xlink="http://www.w3.org/1999/xlink" width="80" height="80" viewBox="0 0 80 80"><defs><clipPath id="a"><rect width="80" height="80" transform="translate(0 0.066)" fill="#fff"/></clipPath></defs><g transform="translate(0 -0.066)" clip-path="url(#a)"><path d="M40.5,41.486a9.127,9.127,0,1,0-1,18.228c.171.009.34.014.509.014A9.128,9.128,0,0,0,40.5,41.486Zm3.935,9.356A4.44,4.44,0,1,1,40,46.16c.082,0,.165,0,.248.007a4.44,4.44,0,0,1,4.191,4.676Z" fill="#fff"/><path d="M37.656,4.35h4.688V9.037H37.656Z" fill="#fff"/><path d="M54.479,17.179l9.015-9.015,3.314,3.314-9.015,9.015Z" fill="#fff"/><path d="M11.619,11.474l3.314-3.314,9.015,9.015-3.314,3.314Z" fill="#fff"/><path d="M79.186,49.341A63.719,63.719,0,0,0,68.568,37.426a53.06,53.06,0,0,0-12.29-8.215A37.983,37.983,0,0,0,40,25.417a37.982,37.982,0,0,0-16.278,3.794,53.053,53.053,0,0,0-12.29,8.215A63.705,63.705,0,0,0,.815,49.341L0,50.6l.815,1.259A63.712,63.712,0,0,0,11.432,63.773a53.059,53.059,0,0,0,12.29,8.215A37.982,37.982,0,0,0,40,75.783a37.983,37.983,0,0,0,16.278-3.794,53.066,53.066,0,0,0,12.29-8.215A63.71,63.71,0,0,0,79.186,51.859L80,50.6Zm-64.6,11.033A62.773,62.773,0,0,1,5.593,50.6a61.865,61.865,0,0,1,12.67-12.71,25.142,25.142,0,0,0,.03,25.457Q16.417,61.973,14.586,60.373ZM40,71.147A20.547,20.547,0,1,1,60.547,50.6,20.547,20.547,0,0,1,40,71.147Zm21.764-7.858a25.251,25.251,0,0,0-.025-25.413q1.86,1.364,3.675,2.95A62.772,62.772,0,0,1,74.407,50.6,61.88,61.88,0,0,1,61.764,63.289Z" fill="#fff"/></g></svg>