<svg xmlns="http://www.w3.org/2000/svg" xmlns:xlink="http://www.w3.org/1999/xlink" width="29" height="32.222" viewBox="0 0 29 32.222"><defs><clipPath id="a"><rect width="29" height="32.222" transform="translate(0 0.508)" fill="#fff"/></clipPath></defs><g transform="translate(0 -0.508)" clip-path="url(#a)"><path d="M13.42,13.929h4.3a1.611,1.611,0,0,0,0-3.222H16.111v-.532a1.611,1.611,0,0,0-3.222,0v.6a3.748,3.748,0,0,0,.532,7.459h2.143a.532.532,0,0,1,0,1.063h-4.3a1.611,1.611,0,0,0,0,3.222h1.611v.532a1.611,1.611,0,0,0,3.222,0v-.6a3.748,3.748,0,0,0-.532-7.459H13.42a.532.532,0,1,1,0-1.063Z" fill="#373737"/><path d="M13.5-1A14.5,14.5,0,0,1,23.753,23.753,14.5,14.5,0,0,1,3.247,3.247,14.405,14.405,0,0,1,13.5-1Zm0,27A12.5,12.5,0,0,0,22.339,4.661,12.5,12.5,0,1,0,4.661,22.339,12.418,12.418,0,0,0,13.5,26Z" transform="translate(1 3.119)" fill="#373737"/></g></svg>