<svg xmlns="http://www.w3.org/2000/svg" width="35.461" height="30.361" viewBox="0 0 35.461 30.361"><g transform="translate(-2.563 -5.594)"><path d="M34.232,13.747a3.8,3.8,0,0,0-3.421-4.181,3.7,3.7,0,0,0-2.787.836,3.8,3.8,0,0,0,2.027,6.765h.38a3.8,3.8,0,0,0,2.394-.861,3.712,3.712,0,0,0,1.406-2.559Zm-2.977.6a1.289,1.289,0,1,1-.823-2.242h.127a1.261,1.261,0,0,1,.671,2.242Z" fill="#fff"/><path d="M36.31,8.553a7.6,7.6,0,1,0-11.757,9.628,7.6,7.6,0,0,0,2.078,1.786L26,21.424a4.618,4.618,0,0,0-1.267,0,4.51,4.51,0,0,0-2.2.95,10.008,10.008,0,0,0-5.068-5.207,10.033,10.033,0,0,0-2.7-7.234,10.275,10.275,0,0,0-8.6-2.9,1.283,1.283,0,1,0,.405,2.534A7.842,7.842,0,0,1,13.05,11.72a7.715,7.715,0,0,1,1.926,6.132,1.267,1.267,0,0,0,.836,1.381,7.362,7.362,0,0,1,2.965,1.913,7.6,7.6,0,0,1,2,4.155,1.267,1.267,0,0,0,1.077,1.077h.177a1.267,1.267,0,0,0,1.153-.748,2.94,2.94,0,0,1,1.964-1.672,2.458,2.458,0,0,1,1.191.152,1.267,1.267,0,0,0,1.558-.7l1.128-2.534a7.165,7.165,0,0,0,1.406.089,7.6,7.6,0,0,0,2.318-.38,18.4,18.4,0,0,1-2.99,6.474A18.788,18.788,0,0,1,21.7,33.4a.672.672,0,0,1-.152-.127.938.938,0,0,1-.241-.545A1.267,1.267,0,0,0,20.3,31.547a11.592,11.592,0,0,1-4.4-1.812,12.1,12.1,0,0,1-4.358-5.321,1.267,1.267,0,0,0-1.584-.7,4.5,4.5,0,0,1-2.407.19A4.726,4.726,0,0,1,4.8,22.172a1.264,1.264,0,0,0-1.951,1.609A7.335,7.335,0,0,0,7.07,26.4a6.954,6.954,0,0,0,2.61,0,14.683,14.683,0,0,0,4.8,5.435,14.316,14.316,0,0,0,4.548,1.976,3.319,3.319,0,0,0,.735,1.191,3.484,3.484,0,0,0,1.761.95h.253a1.267,1.267,0,0,0,.444-.089A20.98,20.98,0,0,0,35.638,18.89,7.6,7.6,0,0,0,36.31,8.553Zm-6.385,9.882a5.068,5.068,0,0,1-2.7-8.957A4.941,4.941,0,0,1,30.431,8.3h.519a5.093,5.093,0,0,1-1.026,10.135Z" fill="#fff"/></g></svg>