<svg xmlns="http://www.w3.org/2000/svg" width="20" height="22" viewBox="0 0 20 22"><g transform="translate(-2 -1)"><path d="M18,9a4,4,0,1,1,4-4A4,4,0,0,1,18,9Zm0-6a2,2,0,1,0,2,2A2,2,0,0,0,18,3Z"/><path d="M6,16a4,4,0,1,1,4-4A4,4,0,0,1,6,16Zm0-6a2,2,0,1,0,2,2A2,2,0,0,0,6,10Z"/><path d="M18,23a4,4,0,1,1,4-4A4,4,0,0,1,18,23Zm0-6a2,2,0,1,0,2,2A2,2,0,0,0,18,17Z"/><path d="M15.419,18.49a1,1,0,0,1-.5-.136l-6.83-3.98a1,1,0,1,1,1.007-1.728l6.83,3.98a1,1,0,0,1-.5,1.864Z"/><path d="M8.591,11.49a1,1,0,0,1-.5-1.864l6.82-3.98a1,1,0,0,1,1.008,1.727l-6.82,3.98A1,1,0,0,1,8.591,11.49Z"/></g></svg>