<svg xmlns="http://www.w3.org/2000/svg" width="32.939" height="35.473" viewBox="0 0 32.939 35.473"><g transform="translate(-4.232 -3.231)"><path d="M35.9,13.367H30.837V4.5A1.267,1.267,0,0,0,29.57,3.231H11.834A1.267,1.267,0,0,0,10.567,4.5v8.868H5.5a1.267,1.267,0,0,0-1.267,1.267V19.7A1.267,1.267,0,0,0,5.5,20.968H6.766v16.47A1.267,1.267,0,0,0,8.033,38.7H33.371a1.267,1.267,0,0,0,1.267-1.267V20.968H35.9A1.267,1.267,0,0,0,37.172,19.7V14.634A1.267,1.267,0,0,0,35.9,13.367Zm-22.8-7.6H28.3v7.6H13.1Zm2.534,30.405V27.3h3.8v8.868Zm6.335,0V27.3h3.8v8.868Zm10.135,0H28.3V26.035a1.267,1.267,0,0,0-1.267-1.267H14.368A1.267,1.267,0,0,0,13.1,26.035V36.171H9.3v-15.2H32.1Zm2.534-17.737H6.766V15.9H34.638Z" fill="#fff"/><path d="M24.5,8.3a1.267,1.267,0,0,0-2.534,0H19.435a1.267,1.267,0,1,0-2.534,0,1.267,1.267,0,1,0,0,2.534,1.267,1.267,0,1,0,2.534,0h2.534a1.267,1.267,0,0,0,2.534,0,1.267,1.267,0,0,0,0-2.534Z" fill="#fff"/></g></svg>