<svg xmlns="http://www.w3.org/2000/svg" width="35.473" height="35.473" viewBox="0 0 35.473 35.473"><path d="M36.2,12.328V11.061A3.991,3.991,0,0,0,32.21,7.032H22.265V5.765h1.267a1.267,1.267,0,0,0,0-2.534H18.465a1.267,1.267,0,0,0,0,2.534h1.267V7.032H9.786A3.991,3.991,0,0,0,5.8,11.023V12.29A3.8,3.8,0,0,0,3.262,15.9v3.8a3.8,3.8,0,0,0,7.6,0V15.9a3.8,3.8,0,0,0-2.534-3.573V11.061A1.47,1.47,0,0,1,9.786,9.566h9.945V10.96a6.334,6.334,0,0,0-5.068,6.208v5.207a2.395,2.395,0,0,0,2.394,2.394h2.673v1.267h-1.47a3.6,3.6,0,0,0-3.6,3.6v1.685a2.318,2.318,0,0,0,2.318,2.318h2.749v2.534H17.2a1.267,1.267,0,1,0,0,2.534h7.6a1.267,1.267,0,0,0,0-2.534H22.265V33.637h2.749a2.318,2.318,0,0,0,2.318-2.318V29.633a3.6,3.6,0,0,0-3.6-3.6h-1.47V24.769h2.673a2.394,2.394,0,0,0,2.395-2.394V17.167a6.334,6.334,0,0,0-5.068-6.208V9.566H32.21a1.47,1.47,0,0,1,1.457,1.457V12.29A3.8,3.8,0,0,0,31.133,15.9v3.8a3.8,3.8,0,1,0,7.6,0V15.9A3.8,3.8,0,0,0,36.2,12.328ZM8.329,19.7a1.267,1.267,0,1,1-2.534,0V15.9a1.267,1.267,0,1,1,2.534,0ZM24.8,29.633V31.1H17.2v-1.47a1.077,1.077,0,0,1,1.064-1.064h5.473A1.077,1.077,0,0,1,24.8,29.633Zm0-12.466v5.068H17.2V17.167a3.8,3.8,0,0,1,7.6,0ZM36.2,19.7a1.267,1.267,0,1,1-2.534,0V15.9a1.267,1.267,0,1,1,2.534,0Z" transform="translate(-3.262 -3.231)" fill="#fff"/></svg>