<svg xmlns="http://www.w3.org/2000/svg" width="48.75" height="52.5" viewBox="0 0 48.75 52.5"><g transform="translate(-14.625 -13.566)"><path d="M61.5,28.566H54V15.441a1.875,1.875,0,0,0-1.875-1.875H25.875A1.875,1.875,0,0,0,24,15.441V28.566H16.5a1.875,1.875,0,0,0-1.875,1.875v7.5A1.875,1.875,0,0,0,16.5,39.816h1.875V64.191a1.875,1.875,0,0,0,1.875,1.875h37.5a1.875,1.875,0,0,0,1.875-1.875V39.816H61.5a1.875,1.875,0,0,0,1.875-1.875v-7.5A1.875,1.875,0,0,0,61.5,28.566ZM27.75,17.316h22.5v11.25H27.75Zm3.75,45V49.191h5.625V62.316Zm9.375,0V49.191H46.5V62.316Zm15,0H50.25v-15a1.875,1.875,0,0,0-1.875-1.875H29.625a1.875,1.875,0,0,0-1.875,1.875v15H22.125v-22.5h33.75Zm3.75-26.25H18.375v-3.75h41.25Z" fill="#1701fe"/><path d="M44.625,21.066a1.875,1.875,0,1,0-3.75,0h-3.75a1.875,1.875,0,1,0-3.75,0,1.875,1.875,0,0,0,0,3.75,1.875,1.875,0,0,0,3.75,0h3.75a1.875,1.875,0,0,0,3.75,0,1.875,1.875,0,1,0,0-3.75Z" fill="#1701fe"/></g></svg>