<svg xmlns="http://www.w3.org/2000/svg" xmlns:xlink="http://www.w3.org/1999/xlink" width="40" height="40" viewBox="0 0 40 40"><defs><clipPath id="a"><rect width="40" height="40" transform="translate(0.2 0.296)" fill="#fff"/></clipPath></defs><g transform="translate(-0.2 -0.296)" clip-path="url(#a)"><path d="M28.45,3.293a11.169,11.169,0,0,1,7.9,19.068L21.614,37.094a2,2,0,0,1-2.828,0L4.052,22.361a11.169,11.169,0,0,1,15.8-15.8l.352.352.352-.352a11.167,11.167,0,0,1,7.9-3.272ZM20.2,32.851,33.519,19.532A7.169,7.169,0,1,0,23.381,9.394l-1.767,1.767a2,2,0,0,1-1.414.586h0a2,2,0,0,1-1.414-.586L17.019,9.394A7.169,7.169,0,0,0,6.881,19.532Z"/></g></svg>