<svg xmlns="http://www.w3.org/2000/svg" width="13.333" height="14.667" viewBox="0 0 13.333 14.667"><g transform="translate(-2 -1.062)"><path d="M4,2.4h9.333a2,2,0,0,1,2,2v9.333a2,2,0,0,1-2,2H4a2,2,0,0,1-2-2V4.4A2,2,0,0,1,4,2.4Zm9.333,12A.667.667,0,0,0,14,13.729V4.4a.667.667,0,0,0-.667-.667H4a.667.667,0,0,0-.667.667v9.333A.667.667,0,0,0,4,14.4Z"/><path d="M11.334,5.062a.667.667,0,0,1-.667-.667V1.729a.667.667,0,0,1,1.333,0V4.4A.667.667,0,0,1,11.334,5.062Z"/><path d="M6,5.062A.667.667,0,0,1,5.334,4.4V1.729a.667.667,0,0,1,1.333,0V4.4A.667.667,0,0,1,6,5.062Z"/><path d="M14.667,7.729h-12a.667.667,0,0,1,0-1.333h12a.667.667,0,0,1,0,1.333Z"/></g></svg>