<svg xmlns="http://www.w3.org/2000/svg" width="35" height="35" viewBox="0 0 35 35"><path d="M35.625,2.5H4.375A1.875,1.875,0,0,0,2.5,4.375v2.5A1.875,1.875,0,0,0,4.375,8.75H16.25V12.5a8.037,8.037,0,0,1-1.062,4.337,6.025,6.025,0,0,1-1.762,1.825,9.3,9.3,0,0,0-1.913,1.813,10.738,10.738,0,0,0-1.437,10A11.362,11.362,0,0,0,19.888,37.5h.225a11.337,11.337,0,0,0,9.813-7.075,10.738,10.738,0,0,0-1.437-9.937,9.3,9.3,0,0,0-1.912-1.812,5.85,5.85,0,0,1-1.75-1.825A7.937,7.937,0,0,1,23.75,12.5V8.75H35.625A1.875,1.875,0,0,0,37.5,6.875v-2.5A1.875,1.875,0,0,0,35.625,2.5ZM22.25,23.9c.112.513.212.938.263,1.25.425,2.575-.425,5.538-2.5,8.825-2.088-3.287-2.937-6.25-2.5-8.825a6.059,6.059,0,0,1,.262-1.25,40.689,40.689,0,0,0,.975-7.65v-2.5h2.5v2.5A40.689,40.689,0,0,0,22.25,23.9Zm-9.825,5.675a8.288,8.288,0,0,1,1.063-7.562A7.689,7.689,0,0,1,15,20.663q.487-.363,1.013-.825c-.2,1.425-.45,2.587-.65,3.538-.125.563-.225,1.025-.288,1.425a14.625,14.625,0,0,0,2.275,9.525,8.287,8.287,0,0,1-4.925-4.75Zm12.637-8.9a7.225,7.225,0,0,1,1.45,1.338,8.325,8.325,0,0,1,1.063,7.563,8.287,8.287,0,0,1-4.863,4.75A14.625,14.625,0,0,0,25,24.8a7.74,7.74,0,0,0-.288-1.425c-.2-.95-.45-2.112-.65-3.538C24.4,20.15,24.737,20.425,25.063,20.675ZM21.25,11.25h-2.5V8.75h2.5ZM35,6.25H5V5H35Z" transform="translate(-2.5 -2.5)" fill="#fff"/></svg>