<svg xmlns="http://www.w3.org/2000/svg" xmlns:xlink="http://www.w3.org/1999/xlink" width="221" height="364" viewBox="0 0 221 364"><defs><clipPath id="a"><rect width="221" height="364" transform="translate(518 234)" fill="rgba(213,40,40,0.62)"/></clipPath><clipPath id="b"><rect width="1920" height="1080" transform="translate(-19 -585)" fill="#fff"/></clipPath></defs><g transform="translate(-518 -234)" clip-path="url(#a)"><g transform="translate(19 585)" clip-path="url(#b)"><g transform="translate(87.27 108)" opacity="0.38"><g transform="translate(47.285 -472.704)"><path d="M367.31-168.246,478.833-106V18.481l-.669.373L367.31,80.723,255.786,18.481V-106Zm108.915,63.774L367.31-165.258,258.394-104.472V16.949L367.31,77.735,476.225,16.949Z" fill="#fff"/><path d="M588.317-168.246,699.841-106V18.481L588.317,80.723,476.794,18.481V-106Zm108.916,63.774L588.317-165.258,479.4-104.472V16.949L588.317,77.735,697.233,16.949Z" fill="#fff"/><path d="M255.6,13.486l.636.355L367.126,75.729V200.213L255.6,262.456,144.079,200.213V75.729ZM364.518,77.26,255.6,16.474,146.687,77.26V198.681L255.6,259.468l108.915-60.787Z" fill="#fff"/><path d="M476.61,13.486l.636.355L588.134,75.729V200.213l-.669.373L476.61,262.456l-.636-.355L365.087,200.213V75.729l.669-.373ZM585.526,77.26,476.61,16.474,367.7,77.26V198.681L476.61,259.468l108.916-60.787Z" fill="#fff"/><path d="M697.62,13.486l.636.355L809.144,75.729V200.213L697.62,262.456,586.1,200.213V75.729l.669-.373ZM806.536,77.26,697.62,16.474,588.705,77.26V198.681L697.62,259.468l108.916-60.787Z" fill="#fff"/><path d="M364.9,195.22l.636.355,110.889,61.887V381.947L364.9,444.189,253.38,381.947V257.462l.669-.373Zm108.916,63.774L364.9,198.208,255.988,258.994V380.415L364.9,441.2l108.916-60.786Z" fill="#fff"/><path d="M585.911,195.22l.636.355,110.889,61.887V381.947L585.911,444.189,474.388,381.947V257.462l.669-.373Zm108.916,63.774L585.911,198.208,477,258.994V380.415L585.911,441.2l108.916-60.786Z" fill="#fff"/></g></g></g></g></svg>