<svg xmlns="http://www.w3.org/2000/svg" width="24.999" height="15.697" viewBox="0 0 24.999 15.697"><path d="M4.96.035c1.334,0,2.674.079,4-.03a1.936,1.936,0,0,1,1.671.9c1.785,1.924,3.681,3.741,5.523,5.609,1.878,1.907,3.772,3.8,5.657,5.7Q23.286,13.7,24.757,15.2c.1.1.3.18.228.37-.075.207-.273.1-.41.1-2.893.005-5.786,0-8.679.007a1.417,1.417,0,0,1-1.077-.443q-3.26-3.307-6.536-6.6C6.858,7.2,5.423,5.776,4,4.341Q2.158,2.48.337.6C.213.469-.067.355.015.155.121-.1.414.043.621.041,2.067.031,3.514.036,4.96.035Z" transform="translate(0 0.001)" fill="#1701fe"/></svg>