<?xml version="1.0" encoding="UTF-8"?> <svg xmlns="http://www.w3.org/2000/svg" xmlns:xlink="http://www.w3.org/1999/xlink" width="130" height="139.339" viewBox="0 0 130 139.339"><defs><clipPath id="a"><rect width="130" height="139.339" transform="translate(0 0.396)" fill="#fff"></rect></clipPath></defs><g transform="translate(0 -0.396)" clip-path="url(#a)"><path d="M21.743,30.59c7.1-6.67,14.238-13.308,21.3-20.028C45.73,8,48.333,5.339,50.81,2.572a5.982,5.982,0,0,1,4.9-2.018c11.5.165,23.057-.774,34.5.622,8.272,1.009,15.64,4.652,22.1,10.071A47.055,47.055,0,0,1,128.46,37.088c3.558,14.932.987,28.4-7.839,40.906-6.172,8.738-14.571,14.132-24.314,17.718a5.416,5.416,0,0,1-6.387-1.479C80.8,85.115,71.365,76.313,62.137,67.3c1.748-2.139,2.992-1.637,4.042-1.65,5.444-.057,10.887.006,16.331-.032A17.635,17.635,0,0,0,98.526,54.457c2.929-7.958-1.986-18.131-9.988-21.151a19.815,19.815,0,0,0-7.248-1.161q-27.325.019-54.644.013h-3.7c-.4-.52-.8-1.034-1.194-1.555Z" fill="#fff"></path><path d="M22.956,65.62c6.173,0,12.377.375,18.506-.14,3.891-.324,5.739,2.081,7.732,4.271,8.26,9.106,17.035,17.705,25.559,26.545,8.693,9.024,17.456,17.978,26.181,26.971q6.835,7.044,13.64,14.113c.478.495,1.371.851,1.056,1.752-.345.977-1.263.469-1.9.469-13.389.026-26.778,0-40.167.032a6.488,6.488,0,0,1-4.985-2.094Q53.493,121.89,38.332,106.317C31.738,99.533,25.1,92.787,18.512,86q-8.533-8.8-16.96-17.718C.981,67.669-.314,67.13.063,66.191c.49-1.219,1.848-.533,2.8-.539,6.695-.051,13.389-.025,20.084-.032Z" fill="#fff"></path></g></svg> 