<svg xmlns="http://www.w3.org/2000/svg" xmlns:xlink="http://www.w3.org/1999/xlink" width="155" height="45" viewBox="0 0 155 45"><defs><clipPath id="a"><rect width="155" height="45" fill="#fff"/></clipPath></defs><g clip-path="url(#a)"><path d="M122.472,29.608c1.7-9.216,3.384-18.254,5.028-27.3.117-.642.305-.854.966-.849,4.913.029,9.828-.032,14.74.032a6.034,6.034,0,0,1,5.959,7.278c-.266,1.633-.542,3.263-.864,4.884a9.135,9.135,0,0,1-4.744,6.514c-.811.442-.857.8-.525,1.569,1.1,2.541,2.138,5.111,3.283,7.871-2.14,0-4.123,0-6.106,0-.489,0-.494-.454-.625-.769-.9-2.155-1.811-4.306-2.663-6.478-.283-.725-.605-1.108-1.47-1.018-1,.1-2.012-.007-3.016.037-.635.027-.85-.107-.688-.8.315-1.333.588-2.68.785-4.035.1-.676.375-.827,1.007-.815,2.053.039,4.108.022,6.162.012,1.9-.007,2.757-.764,3.1-2.665.213-1.191.47-2.375.673-3.566.279-1.633-.339-2.394-1.992-2.407-2.819-.024-5.639.034-8.457-.034-.79-.02-.935.339-1.044.947q-1.362,7.5-2.741,15-.534,2.914-1.067,5.831c-.083.447-.134.813-.787.788-1.605-.059-3.213-.02-4.915-.02Z" fill="#fff"/><path d="M23.725,29.609c-2.019,0-3.872-.029-5.721.017-.615.015-.818-.271-1.019-.774-.886-2.2-1.862-4.371-2.7-6.593a1.184,1.184,0,0,0-1.4-.91c-1.043.061-2.094-.012-3.14.027-.547.02-.707-.156-.6-.688.288-1.423.569-2.846.816-4.276.094-.552.358-.691.9-.681,2.094.034,4.189.022,6.283.012a2.76,2.76,0,0,0,3.077-2.575c.242-1.267.472-2.536.7-3.808a1.724,1.724,0,0,0-1.8-2.253c-2.939-.037-5.881.01-8.82-.027-.671-.01-.792.33-.886.854q-1.82,10-3.658,19.992c-.305,1.682-.283,1.684-1.951,1.684-.966,0-1.937-.059-2.9.017-.942.073-.988-.256-.833-1.091q2.408-12.843,4.709-25.7c.189-1.054.5-1.416,1.642-1.394,4.591.083,9.183.029,13.774.037,4.281.007,6.905,2.958,6.363,7.227-.223,1.757-.571,3.5-.932,5.238a9.121,9.121,0,0,1-4.808,6.326c-.637.349-.729.61-.448,1.264,1.128,2.619,2.194,5.265,3.356,8.079Z" fill="#fff"/><path d="M77.858,1.547c-.322,1.655-.675,3.268-.932,4.9-.119.754-.6.605-1.053.605q-5.676,0-11.353,0a3.441,3.441,0,0,0-3.629,4.257,1.692,1.692,0,0,0,1.925,1.44q3.563-.011,7.125,0c4.719.007,7.205,3.166,6.474,7.881-.654,4.21-2.687,7.171-6.753,8.594a5.279,5.279,0,0,1-1.639.354c-5.351.027-10.7.015-16.166.015.424-1.708.869-3.334,1.218-4.979.165-.774.692-.535,1.116-.537,4.348-.015,8.7-.1,13.043.022,3.135.09,3.61-2.067,3.578-4.4-.015-1.1-.971-1.367-1.935-1.369-2.3,0-4.591,0-6.886,0-4.884,0-7.389-3.158-6.588-7.986.615-3.7,2.3-6.483,5.721-8.1a7.357,7.357,0,0,1,3.14-.766c4.348-.012,8.7,0,13.045,0a4.566,4.566,0,0,1,.545.071Z" fill="#fff"/><path d="M120.26,24.069c-.317,1.706-.636,3.285-.891,4.877-.08.493-.23.679-.745.676-3.906-.022-7.816.09-11.719-.054-3.736-.137-6.113-3.6-5.394-7.62q1.158-6.488,2.407-12.963a9.424,9.424,0,0,1,9.137-7.508c3.779-.007,7.559,0,11.413,0-.322,1.691-.658,3.268-.9,4.857-.1.639-.377.737-.939.732-3.383-.022-6.765-.015-10.147-.01-1.872,0-2.731.693-3.09,2.519-.208,1.057-.9,2.338-.348,3.107.351.491,1.886.151,2.891.146,3.14-.017,6.28-.02,9.418-.1.879-.022,1.017.283.852,1.045-.264,1.22-.518,2.448-.68,3.685-.1.74-.431.893-1.112.888-3.866-.029-7.733.022-11.6-.042-.9-.015-1.21.3-1.3,1.111-.075.679-.22,1.352-.353,2.023-.375,1.892.218,2.621,2.179,2.626C112.922,24.077,116.5,24.069,120.26,24.069Z" fill="#fff"/><path d="M36.883,1.474c-1.247,6.7-2.472,13.312-3.707,19.919-.361,1.926.208,2.663,2.135,2.673,1.971.012,3.944.022,5.915,0a2.519,2.519,0,0,0,2.767-2.3Q45.81,12.2,47.553,2.626c.153-.849.375-1.245,1.337-1.181,1.474.1,2.961.027,4.494.027-1.317,7.081-2.559,14.064-3.934,21.02a9.271,9.271,0,0,1-8.811,7.115q-3.5.011-7,0c-4.031-.015-6.787-3.031-6.145-7.046.9-5.609,2.019-11.181,3.043-16.77.2-1.108.443-2.214.6-3.329.1-.7.283-1.057,1.114-1.01,1.521.083,3.048.024,4.639.024Z" fill="#fff"/><path d="M88.536,7.055H79.457c.327-1.74.651-3.39.935-5.047.068-.4.211-.539.608-.539,7.36.007,14.721,0,22.166,0-.322,1.706-.668,3.315-.913,4.94-.094.627-.4.649-.884.647-2.174-.015-4.345.012-6.52-.02-.6-.007-.8.166-.918.786-1.259,6.939-2.569,13.868-3.833,20.807-.128.71-.317,1.04-1.126,1-1.521-.078-3.048-.022-4.622-.022,1.4-7.547,2.78-14.991,4.181-22.555Z" fill="#fff"/><path d="M105.366,39.389c-.23,1.535-.489,3.068-.678,4.608-.075.618-.232.874-.93.9-.772.027-.956-.31-1.036-.952a21.824,21.824,0,0,0-.884-4.347c0,1.44.015,2.882-.012,4.322-.007.342.242.889-.423.932-.7.046-.477-.513-.48-.857-.019-1.977,0-3.952-.012-5.929,0-.464-.051-.923.649-.844.511.056,1.145-.229,1.242.683.152,1.44.387,2.873.593,4.308a3.4,3.4,0,0,0,.443,1.394c.254-1.821.572-3.634.739-5.462.089-.964.622-.908,1.305-.932.816-.032.653.5.656.962,0,1.977.009,3.954-.005,5.929,0,.315.169.771-.453.764-.578-.007-.486-.417-.489-.764-.005-1.562,0-3.127,0-4.689l-.225-.02Z" fill="#eee"/><path d="M75.039,40.838c0-1.008.017-2.016-.007-3.022-.012-.481.077-.764.649-.73.76.044,1.53-.032,2.286.046a2.133,2.133,0,0,1,1.588,3.527c-.211.288-.259.334-.048.71.528.94.165,2.035.208,3.063.015.337-.312.288-.545.293-.305,0-.421-.173-.421-.454,0-.564-.036-1.13,0-1.691.053-.737-.247-.971-.976-.981-1.813-.024-1.813-.059-1.816,1.713a2.677,2.677,0,0,1,0,.483c-.065.344.232.906-.433.923-.785.019-.45-.62-.467-.979-.044-.964-.015-1.933-.015-2.9Zm2.027-.186c1.01.032,1.918.02,1.964-1.252.034-.988-.528-1.279-1.91-1.411-1.288-.124-1.128.625-1.174,1.443-.051.932.116,1.5,1.123,1.22Z" fill="#eee"/><path d="M38.713,44.942A2.649,2.649,0,0,1,35.762,42.7c-.041-.3-.281-.759.317-.857.477-.078.559.173.661.6A1.808,1.808,0,0,0,39.023,44c.709-.085,1.213-.391,1.283-1.181.07-.764-.4-1.1-1.022-1.279-.5-.144-1.029-.183-1.533-.315a2.015,2.015,0,0,1-1.685-2.167,2.092,2.092,0,0,1,1.971-1.936c1.692-.215,3.072.639,3.2,2,.029.3.143.676-.366.725-.37.037-.521-.083-.651-.483a1.662,1.662,0,0,0-2.21-1.247,1.112,1.112,0,0,0-.923.986,1,1,0,0,0,.736,1.111,8.475,8.475,0,0,0,1.283.307c1.661.317,2.305,1.04,2.184,2.472-.106,1.252-1.017,1.94-2.576,1.948Z" fill="#eee"/><path d="M67.314,41.056c-.036.566-.029,1.133-.116,1.687a2.612,2.612,0,0,1-5.167-.049,11.5,11.5,0,0,1-.012-3.249,2.607,2.607,0,0,1,5.176-.068c.087.552.08,1.12.119,1.682Zm-1,.083a14.762,14.762,0,0,0-.157-1.821,1.474,1.474,0,0,0-1.518-1.281,1.445,1.445,0,0,0-1.552,1.233,8.236,8.236,0,0,0,.01,3.6,1.408,1.408,0,0,0,1.5,1.145A1.439,1.439,0,0,0,66.155,42.8a13.827,13.827,0,0,0,.157-1.662Z" fill="#eee"/><path d="M123.339,37.117a2.3,2.3,0,0,1,2.567,1.867c.046.3.355.752-.267.859-.443.076-.639-.124-.724-.574-.215-1.159-1.092-1.264-2.033-1.167a1.117,1.117,0,0,0-1.085.964,1.054,1.054,0,0,0,.828,1.179c.644.212,1.324.315,1.98.5a1.872,1.872,0,0,1,1.456,1.977,2.08,2.08,0,0,1-1.414,2.053c-1.884.718-3.983-.32-4.129-2.065-.026-.31-.232-.786.342-.859.487-.061.545.29.641.679a1.889,1.889,0,0,0,2.581,1.418,1.242,1.242,0,0,0,.969-1.106,1.063,1.063,0,0,0-.8-1.2,13.594,13.594,0,0,0-1.4-.347c-1.523-.329-2.194-1.084-2.07-2.333.111-1.137,1.109-1.855,2.557-1.845Z" fill="#eee"/><path d="M29.43,40.289c0-.766-.007-1.535,0-2.3,0-.337-.126-.752.472-.766s.509.373.511.73c0,1.374-.01,2.748,0,4.12.012,1.335.528,1.943,1.61,1.943,1.1,0,1.586-.559,1.612-1.936.027-1.333,0-2.665.01-4,0-.386-.121-.867.533-.849.567.015.472.439.472.788,0,1.413.046,2.829-.015,4.242-.082,1.918-1,2.753-2.806,2.682-1.6-.063-2.385-.986-2.4-2.834-.007-.605,0-1.213,0-1.818Z" fill="#eee"/><path d="M47.573,41.063c0,1.047,0,2.1,0,3.144,0,.312.06.642-.448.664-.571.024-.542-.325-.537-.7,0-.2,0-.4,0-.605,0-2.092-.571-2.516-2.649-2.077-.482.1-.424.381-.426.7,0,.686,0,1.369,0,2.055,0,.337,0,.639-.492.627-.465-.012-.5-.286-.5-.637,0-2.136.007-4.271,0-6.409,0-.4.133-.6.552-.593s.448.249.445.556v.605c.012,2.319.252,2.5,2.583,2.177.455-.063.5-.256.5-.615-.012-.725,0-1.45,0-2.177,0-.315.048-.535.448-.552.441-.017.55.186.545.579-.012,1.088,0,2.177,0,3.266Z" fill="#eee"/><path d="M97.233,37.226c.6,0,1.206.01,1.811,0,.339-.007.525.093.535.469s-.194.52-.521.456c-1.31-.254-1.411.486-1.344,1.513a25.384,25.384,0,0,1,0,3.268c-.049.791.191,1.081.99,1,.31-.032.867-.29.872.437,0,.693-.5.483-.855.491-1.046.017-2.092.01-3.138,0-.344,0-.76.107-.792-.464-.034-.608.416-.53.739-.476,1.058.181,1.283-.29,1.211-1.259a28.288,28.288,0,0,1,0-3.51c.039-.781-.191-1.1-1-1.02-.322.032-.908.278-.925-.4-.019-.752.6-.469.981-.5.479-.039.964-.01,1.448-.01Z" fill="#eee"/><path d="M109.7,40.985a12.822,12.822,0,0,1,.008-1.33c.1-.993.017-1.774-1.313-1.511-.307.061-.559-.044-.554-.437.005-.361.2-.486.537-.483,1.245,0,2.492.01,3.736,0,.354,0,.511.125.518.486.008.405-.23.5-.537.437-1.392-.3-1.477.505-1.412,1.565a24.757,24.757,0,0,1,0,3.141c-.056.81.128,1.184,1.019,1.079.332-.039.974-.327.928.491-.037.693-.572.42-.906.43-1.085.029-2.169,0-3.254.015-.368,0-.62-.071-.627-.518,0-.412.252-.49.547-.432,1.3.264,1.441-.461,1.322-1.481a12.515,12.515,0,0,1-.01-1.45Z" fill="#eee"/><path d="M73.685,40.3c0,.847.058,1.7-.015,2.541a2.217,2.217,0,0,1-2.472,2.1c-1.474.017-2.491-.666-2.583-1.972-.121-1.728-.061-3.468-.08-5.2,0-.322.073-.542.465-.539.436,0,.535.229.533.613-.01,1.413-.017,2.826,0,4.24.017,1.372.492,1.931,1.6,1.936s1.581-.574,1.591-1.928c.012-1.372,0-2.746,0-4.118,0-.376-.029-.745.523-.742.6,0,.462.437.47.771.015.766,0,1.535,0,2.3h-.034Z" fill="#eee"/><path d="M23.147,40.958c0-1.01.022-2.021-.01-3.029-.014-.508.128-.74.673-.71.724.039,1.453-.027,2.172.029a2.045,2.045,0,0,1,2.15,2.353,2.065,2.065,0,0,1-2.254,2.143A1.664,1.664,0,0,0,24.1,43.6v.605c0,.337,0,.639-.479.659-.513.022-.467-.315-.47-.635C23.145,43.14,23.147,42.049,23.147,40.958Zm.985-1.44c-.184.8-.133,1.413,1.048,1.3.949-.093,1.925.007,2-1.3.056-.945-.586-1.274-1.959-1.389C24.082,38.03,23.963,38.581,24.133,39.518Z" fill="#eee"/><path d="M58.1,41.347c.625-1.318,1.194-2.424,1.671-3.571.228-.549.639-.693,1.034-.51.545.254.01.618-.106.876-.6,1.316-1.208,2.631-1.9,3.9-.4.745-.126,1.5-.223,2.241-.039.291-.027.564-.436.579-.378.015-.533-.166-.482-.5.334-2.321-1.329-3.947-2.01-5.912-.128-.371-.86-.835-.208-1.167.673-.344.908.351,1.145.881.458,1.025.961,2.031,1.513,3.185Z" fill="#eee"/><path d="M116.224,41.363a11.566,11.566,0,0,1,.012-1.569c.167-1.213-.1-1.943-1.533-1.652-.3.061-.663.063-.656-.444.007-.488.337-.469.663-.469,1.366,0,2.729.007,4.1-.007.389,0,.605.09.593.532s-.3.376-.581.405c-1.6.161-1.6.166-1.6,1.835,0,1.369.007,2.739-.005,4.108,0,.33.135.757-.465.766-.559.01-.528-.354-.525-.725Z" fill="#eee"/><path d="M88.351,41.051V37.9c0-.325-.046-.679.45-.671.467.007.474.327.472.669,0,1.738.024,3.473-.015,5.208-.015.63.162.854.8.81.8-.054,1.61-.024,2.414-.007.324.007.77-.142.738.481-.032.581-.45.461-.787.466-1.087.01-2.174-.029-3.259.017-.617.027-.862-.139-.83-.8.051-1.008.012-2.019.012-3.029Z" fill="#eee"/><path d="M155,2.28A2.355,2.355,0,0,1,152.577,4.6a2.325,2.325,0,0,1-2.312-2.414A2.205,2.205,0,0,1,152.739,0,2.174,2.174,0,0,1,155,2.282Zm-2.327,1.806A1.8,1.8,0,0,0,154.4,2.158,1.711,1.711,0,0,0,152.584.479a1.8,1.8,0,0,0-1.769,1.772A1.86,1.86,0,0,0,152.674,4.086Z" fill="#eee"/><path d="M152.543,2.539c-.283.168-.123.51-.256.742-.121.21-.463.222-.477.09a7.039,7.039,0,0,1-.046-2.136c.111-.537.75-.234,1.135-.227.576.01.84.393.736.981-.019.112-.14.21-.15.322-.039.378.576.884-.019,1.1-.572.207-.325-.737-.92-.874Z" fill="#eee"/></g></svg>