<svg xmlns="http://www.w3.org/2000/svg" width="583.018" height="180.99" viewBox="0 0 583.018 180.99"><g transform="translate(-63 -45.5)"><path d="M548.2,226.361c6.224-33.653,12.36-66.655,18.363-99.684.424-2.344,1.114-3.119,3.527-3.1,17.938.107,35.885-.115,53.823.116,14.411.179,24.109,12.228,21.757,26.577-.972,5.962-1.98,11.916-3.156,17.834-2.1,10.587-7.9,18.653-17.319,23.787-2.962,1.613-3.13,2.932-1.918,5.73,4.031,9.278,7.806,18.663,11.988,28.742-7.816,0-15.056.018-22.3-.017-1.786,0-1.8-1.658-2.281-2.808-3.271-7.869-6.613-15.721-9.725-23.653-1.034-2.647-2.21-4.046-5.366-3.717-3.634.384-7.347-.026-11.016.134-2.316.1-3.1-.392-2.51-2.914,1.149-4.866,2.148-9.786,2.864-14.732.362-2.469,1.37-3.022,3.678-2.977,7.5.143,15,.08,22.5.045,6.94-.027,10.069-2.79,11.307-9.733.778-4.349,1.715-8.671,2.458-13.021,1.016-5.962-1.238-8.743-7.276-8.787-10.291-.089-20.591.125-30.881-.125-2.882-.071-3.413,1.239-3.811,3.458q-4.973,27.378-10.007,54.757-1.95,10.643-3.9,21.292c-.3,1.631-.486,2.968-2.873,2.879-5.862-.214-11.732-.072-17.947-.072Z" fill="#1701fe"/><path d="M187.623,226.365c-7.374,0-14.137-.107-20.891.062-2.246.053-2.988-.989-3.722-2.825-3.236-8.048-6.8-15.962-9.858-24.072-1.043-2.772-2.422-3.485-5.118-3.325-3.811.223-7.648-.044-11.467.1-2,.072-2.581-.57-2.184-2.513,1.052-5.2,2.078-10.392,2.98-15.614.345-2.015,1.308-2.523,3.28-2.487,7.647.125,15.294.08,22.942.045,6.612-.036,9.99-2.879,11.236-9.4.884-4.625,1.724-9.26,2.555-13.9.875-4.884-1.591-8.164-6.577-8.226-10.733-.134-21.475.035-32.207-.1-2.449-.036-2.891,1.2-3.236,3.119q-6.644,36.51-13.359,73c-1.114,6.141-1.034,6.149-7.125,6.149-3.528,0-7.073-.213-10.583.063-3.439.267-3.607-.936-3.041-3.984q8.792-46.9,17.195-93.856c.69-3.85,1.839-5.169,5.994-5.089,16.763.3,33.534.107,50.3.134,15.63.027,25.214,10.8,23.233,26.389-.813,6.417-2.086,12.79-3.4,19.126-2.175,10.463-8.355,18.048-17.558,23.1-2.325,1.275-2.661,2.228-1.636,4.617,4.12,9.563,8.01,19.224,12.254,29.5Z" fill="#1701fe"/><path d="M385.293,123.9c-1.176,6.042-2.467,11.933-3.4,17.887-.433,2.754-2.175,2.21-3.845,2.21q-20.729.014-41.455,0c-9.159,0-14.817,6.56-13.252,15.543.663,3.815,3.341,5.276,7.028,5.258q13.01-.039,26.019,0c17.23.027,26.31,11.56,23.64,28.778-2.387,15.374-9.813,26.185-24.657,31.381a19.286,19.286,0,0,1-5.985,1.292c-19.539.1-39.077.053-59.03.053,1.547-6.238,3.173-12.174,4.447-18.181.6-2.825,2.528-1.952,4.075-1.96,15.878-.054,31.765-.375,47.626.08,11.448.33,13.181-7.549,13.066-16.051-.053-4-3.545-4.991-7.064-5-8.381-.018-16.762,0-25.143,0-17.832,0-26.982-11.533-24.056-29.161,2.246-13.5,8.4-23.671,20.891-29.589a26.867,26.867,0,0,1,11.467-2.8c15.878-.044,31.756-.018,47.634-.009a16.66,16.66,0,0,1,1.989.259Z" fill="#1701fe"/><path d="M540.122,206.137c-1.158,6.23-2.325,12-3.253,17.807-.292,1.8-.84,2.478-2.723,2.469-14.26-.08-28.538.33-42.79-.2-13.641-.5-22.323-13.137-19.7-27.825q4.23-23.688,8.788-47.333c3.006-15.65,17.381-27.388,33.365-27.414,13.8-.027,27.6,0,41.676,0-1.176,6.176-2.4,11.933-3.3,17.735-.354,2.335-1.379,2.692-3.43,2.674-12.351-.08-24.7-.054-37.052-.036-6.834.009-9.972,2.531-11.281,9.2-.76,3.859-3.28,8.538-1.273,11.345,1.282,1.792,6.887.553,10.556.535,11.467-.062,22.933-.071,34.391-.357,3.209-.08,3.713,1.034,3.112,3.815-.964,4.456-1.892,8.939-2.485,13.458-.353,2.7-1.573,3.261-4.057,3.244-14.119-.107-28.238.08-42.348-.152-3.28-.053-4.42,1.087-4.739,4.055-.274,2.478-.8,4.938-1.29,7.389-1.371,6.907.795,9.571,7.956,9.589C513.326,206.164,526.4,206.137,540.122,206.137Z" fill="#1701fe"/><path d="M235.671,123.631c-4.553,24.473-9.026,48.608-13.535,72.734-1.317,7.031.76,9.723,7.8,9.759,7.2.044,14.4.08,21.6-.018,5.79-.072,9.008-2.656,10.1-8.4q6.63-34.905,13-69.863c.557-3.1,1.37-4.546,4.88-4.314,5.384.357,10.812.1,16.408.1-4.809,25.855-9.344,51.353-14.366,76.753-2.891,14.607-17.39,25.926-32.172,25.98q-12.783.039-25.567,0c-14.72-.054-24.781-11.07-22.438-25.73,3.271-20.481,7.373-40.828,11.113-61.237.742-4.046,1.618-8.083,2.183-12.156.354-2.549,1.035-3.859,4.067-3.69,5.552.3,11.131.089,16.939.089Z" fill="#1701fe"/><path d="M424.282,144.008H391.129c1.193-6.355,2.378-12.379,3.412-18.431.248-1.444.77-1.97,2.219-1.97,26.877.027,53.753.018,80.938.018-1.176,6.23-2.44,12.1-3.333,18.039-.345,2.29-1.459,2.37-3.227,2.362-7.939-.054-15.869.044-23.808-.072-2.175-.026-2.935.606-3.351,2.87-4.6,25.338-9.38,50.64-13.995,75.978-.468,2.593-1.158,3.8-4.111,3.645-5.552-.285-11.13-.08-16.877-.08,5.11-27.557,10.149-54.74,15.268-82.359Z" fill="#1701fe"/><path d="M63,100.359h6.158l8.863-41.8H71.863V46.806h27.9a24.507,24.507,0,0,1,8.117,1.213,15.252,15.252,0,0,1,5.691,3.172,12.19,12.19,0,0,1,3.265,4.851,16.84,16.84,0,0,1-.093,12.315,14.5,14.5,0,0,1-3.172,4.758,19.044,19.044,0,0,1-4.758,3.452,23.955,23.955,0,0,1-5.691,2.146v1.679a12.025,12.025,0,0,1,6.064,4.012q2.333,2.892,2.332,8.117a16.865,16.865,0,0,1-1.772,7.65,19.244,19.244,0,0,1-4.758,6.251,24.286,24.286,0,0,1-7.371,4.2,27.405,27.405,0,0,1-9.236,1.493H63Zm18.286,0H89.31a12.248,12.248,0,0,0,7.557-2.24,7.475,7.475,0,0,0,3.079-6.437q0-3.452-2.053-4.945a8.741,8.741,0,0,0-5.411-1.493H84.458Zm5.691-26.87H95a12.285,12.285,0,0,0,7.65-2.146,7.758,7.758,0,0,0,2.892-6.531,5.649,5.649,0,0,0-1.959-4.665,8.37,8.37,0,0,0-5.411-1.586H90.149Z" fill="#323232"/><path d="M121.339,110.994,134.96,46.806h12.316l-11.383,53.553h28.363v11.755H121.339Z" fill="#323232"/><path d="M183.13,72.183q2.892-13.808,9.61-20.245Q199.55,45.5,211.4,45.5a22.741,22.741,0,0,1,8.77,1.586,17.22,17.22,0,0,1,6.437,4.292,17.419,17.419,0,0,1,3.919,6.438,22.665,22.665,0,0,1,1.4,8.023,27.212,27.212,0,0,1-.186,3.172,18.655,18.655,0,0,1-.467,3.172l-3.079,14.554q-2.892,13.808-9.7,20.246-6.717,6.437-18.566,6.437a23.987,23.987,0,0,1-8.77-1.493,18.852,18.852,0,0,1-6.437-4.291A19.7,19.7,0,0,1,180.7,101.2a24.4,24.4,0,0,1-1.306-8.117q0-1.586.093-3.172a28.351,28.351,0,0,1,.56-3.172Zm17.913,30.042a13.232,13.232,0,0,0,5.6-1.12,14.129,14.129,0,0,0,4.2-3.172,15.01,15.01,0,0,0,2.986-4.665,28.682,28.682,0,0,0,1.866-5.784l3.452-16.047q.279-1.493.373-2.519a13.1,13.1,0,0,0,.186-2.146q0-4.758-2.519-7.37a8.791,8.791,0,0,0-6.9-2.706,12.356,12.356,0,0,0-5.6,1.213,13.947,13.947,0,0,0-4.292,3.079,17.651,17.651,0,0,0-2.986,4.665,33.012,33.012,0,0,0-1.772,5.784L192.18,87.484a21.616,21.616,0,0,0-.56,4.665,10.781,10.781,0,0,0,2.426,7.464A9.262,9.262,0,0,0,201.043,102.225Z" fill="#323232"/><path d="M257.7,79.087h28.828v1.119l-6.717,31.908h-11.2l1.586-7.277h-1.679a16.478,16.478,0,0,1-5.6,6.157q-3.732,2.427-10.076,2.426a18.155,18.155,0,0,1-6.717-1.213,13.809,13.809,0,0,1-5.318-3.452,16.983,16.983,0,0,1-3.545-5.691,23.859,23.859,0,0,1-1.213-7.93,38.811,38.811,0,0,1,.933-8.024l3.265-15.3q2.892-13.528,10.263-19.872,7.464-6.438,19.312-6.437a21.726,21.726,0,0,1,8.3,1.493,17.263,17.263,0,0,1,6.25,3.918,16.857,16.857,0,0,1,3.826,5.878,17.573,17.573,0,0,1,1.4,7,22.707,22.707,0,0,1-.186,2.8q-.187,1.4-.467,2.612l-.28,1.12H276.362l.28-1.12a13.849,13.849,0,0,0,.466-3.639,7.671,7.671,0,0,0-2.425-6.064q-2.427-2.239-7.091-2.239a14.486,14.486,0,0,0-4.945.84,13.132,13.132,0,0,0-4.385,2.706,15.952,15.952,0,0,0-3.452,4.758,29.357,29.357,0,0,0-2.425,7.184L249.4,86.551a21.571,21.571,0,0,0-.466,2.8q-.095,1.12-.094,2.239,0,5.038,2.613,7.557a9.784,9.784,0,0,0,7.09,2.519,13.476,13.476,0,0,0,8.957-2.893,13.643,13.643,0,0,0,4.571-7.93H257.7Z" fill="#323232"/></g></svg>