<?xml version="1.0" encoding="UTF-8"?> <svg xmlns="http://www.w3.org/2000/svg" width="40" height="20.163" viewBox="0 0 40 20.163"><path d="M37.143,13.575H35.714a3.682,3.682,0,0,0-.837-2.376,2.659,2.659,0,0,0-2.02-.984H31.429a2.659,2.659,0,0,0-2.02.984,3.682,3.682,0,0,0-.837,2.376v5.041H11.429V13.575a3.682,3.682,0,0,0-.837-2.376,2.659,2.659,0,0,0-2.02-.984H7.143a2.659,2.659,0,0,0-2.02.984,3.683,3.683,0,0,0-.837,2.376H2.857a2.659,2.659,0,0,0-2.02.984A3.683,3.683,0,0,0,0,16.936v6.721a3.682,3.682,0,0,0,.837,2.376,2.659,2.659,0,0,0,2.02.984H4.286a3.683,3.683,0,0,0,.837,2.376,2.659,2.659,0,0,0,2.02.984H8.571a2.659,2.659,0,0,0,2.02-.984,3.683,3.683,0,0,0,.837-2.376V21.977H28.571v5.041a3.683,3.683,0,0,0,.837,2.376,2.659,2.659,0,0,0,2.02.984h1.429a2.659,2.659,0,0,0,2.02-.984,3.683,3.683,0,0,0,.837-2.376h1.429a2.659,2.659,0,0,0,2.02-.984A3.682,3.682,0,0,0,40,23.657V16.936a3.683,3.683,0,0,0-.837-2.376A2.659,2.659,0,0,0,37.143,13.575ZM2.857,23.657V16.936H4.286v6.721Zm5.714,3.361H7.143V13.575H8.571Zm22.857,0V13.575h1.429V27.017Zm4.286-3.361V16.936h1.429v6.721Z" transform="translate(0 -10.215)"></path></svg> 