<?xml version="1.0" encoding="UTF-8"?> <svg xmlns="http://www.w3.org/2000/svg" width="234.375" height="234.234" viewBox="0 0 234.375 234.234"><path d="M160.157,7.813a70.313,70.313,0,1,0,70.312,70.313A70.393,70.393,0,0,0,160.157,7.813Zm0,7.813a62.5,62.5,0,1,1-62.5,62.5A62.574,62.574,0,0,1,160.157,15.625Zm0,11.719a50.85,50.85,0,1,0,42.312,22.751,3.906,3.906,0,1,0-6.5,4.333,42.948,42.948,0,1,1-35.812-19.272c1.21,0,2.4.085,3.585.183a3.9,3.9,0,1,0,.641-7.782C162.989,27.44,161.586,27.344,160.157,27.344Zm19.653,4.3a3.911,3.911,0,0,0-1.755,7.462,43.02,43.02,0,0,1,7.164,4.2,3.882,3.882,0,0,0,2.274.732,3.9,3.9,0,0,0,2.288-7.072,51.1,51.1,0,0,0-8.461-4.959A3.9,3.9,0,0,0,179.81,31.647ZM160.157,42.969a3.908,3.908,0,0,0-3.907,3.906v3.906a15.625,15.625,0,0,0,0,31.25h7.813a7.813,7.813,0,0,1,0,15.625V89.844a3.907,3.907,0,0,0-7.813,0v7.813a7.81,7.81,0,0,1-7.812-7.812,3.907,3.907,0,0,0-7.813,0,15.626,15.626,0,0,0,15.625,15.625v3.906a3.907,3.907,0,0,0,7.813,0v-3.906a15.625,15.625,0,0,0,0-31.25V66.406a3.907,3.907,0,0,0-7.813,0v7.813a7.813,7.813,0,0,1,0-15.625h7.813a7.81,7.81,0,0,1,7.812,7.813,3.907,3.907,0,0,0,7.813,0,15.626,15.626,0,0,0-15.625-15.625V46.875A3.908,3.908,0,0,0,160.157,42.969Zm-88.57,95.009a50.841,50.841,0,0,0-7.088.343l-46.341,5.432A11.717,11.717,0,0,0,7.813,155.472v49.37a11.718,11.718,0,0,0,14.565,11.367l25.6-6.4A27.314,27.314,0,0,1,67.5,212.151l49.149,25.894a35.1,35.1,0,0,0,32.555,0l83.145-42.969a18.324,18.324,0,0,0,2.769-30.7l-.19-.114a18.152,18.152,0,0,0-15.618-3.243l-52.46,13.588a19.52,19.52,0,0,0-19.912-13.237l-8.545.626a19.492,19.492,0,0,1-9.56-1.839L92.095,142.815A50.692,50.692,0,0,0,71.587,137.978Zm-.336,7.8a42.91,42.91,0,0,1,17.4,4.181L125.389,167.3a27.316,27.316,0,0,0,13.626,2.541l8.545-.626A11.71,11.71,0,0,1,160.1,180.046c.024.3.031.6.031.893v1.6a3.9,3.9,0,0,1-2.3,3.555l-11.711,5.2a35.093,35.093,0,0,1-27.321.58l-19.524-7.813a3.911,3.911,0,0,0-2.884,7.271l19.524,7.812a43.107,43.107,0,0,0,33.569-.7l11.711-5.2a11.716,11.716,0,0,0,6.676-10.78l53.284-13.832a10.468,10.468,0,0,1,7.454,19.531l-.038-.115-83.145,42.969a27.315,27.315,0,0,1-25.3,0l-49.14-25.787A35.1,35.1,0,0,0,46.1,202.225l-25.642,6.408a3.9,3.9,0,0,1-4.73-2.853,3.818,3.818,0,0,1-.114-1.053V155.388a3.91,3.91,0,0,1,3.441-3.906l46.173-5.425A43.186,43.186,0,0,1,71.251,145.782ZM27.344,156.25a3.907,3.907,0,0,0,0,7.813h7.813a3.907,3.907,0,0,0,0-7.813Zm0,19.531a3.906,3.906,0,0,0,0,7.813h7.813a3.906,3.906,0,0,0,0-7.813Zm0,19.532a3.906,3.906,0,1,0,0,7.812h7.813a3.906,3.906,0,1,0,0-7.812Z" transform="translate(-7.813 -7.813)"></path></svg> 