<?xml version="1.0" encoding="UTF-8"?> <svg xmlns="http://www.w3.org/2000/svg" width="52" height="52" viewBox="0 0 52 52"><path d="M64.96,59.76H63.92V17.12a3.12,3.12,0,1,0-6.24,0V19.2H22.32V17.12a3.12,3.12,0,1,0-6.24,0V59.76H15.04A1.043,1.043,0,0,0,14,60.8v4.16A1.043,1.043,0,0,0,15.04,66H64.96A1.043,1.043,0,0,0,66,64.96V60.8A1.043,1.043,0,0,0,64.96,59.76Zm-5.2-42.64a1.04,1.04,0,1,1,2.08,0V55.6H59.76Zm0,40.56h2.08v2.08H59.76ZM22.32,21.28H57.68v2.08H22.32Zm-4.16-4.16a1.04,1.04,0,1,1,2.08,0V55.6H18.16Zm0,40.56h2.08v2.08H18.16Zm4.16,6.24H16.08V61.84h6.24ZM55.6,60.8v3.12H24.4V60.8a1.043,1.043,0,0,0-1.04-1.04H22.32V25.44h5.2v3.266a4.16,4.16,0,1,0,2.08,0V25.44h9.36v3.266a4.16,4.16,0,1,0,2.08,0V25.44H50.4v3.266a4.16,4.16,0,1,0,2.08,0V25.44h5.2V59.76H56.64A1.043,1.043,0,0,0,55.6,60.8ZM28.56,30.64a2.08,2.08,0,1,1-2.08,2.08A2.086,2.086,0,0,1,28.56,30.64Zm11.44,0a2.08,2.08,0,1,1-2.08,2.08A2.086,2.086,0,0,1,40,30.64Zm11.44,0a2.08,2.08,0,1,1-2.08,2.08A2.086,2.086,0,0,1,51.44,30.64ZM63.92,63.92H57.68V61.84h6.24Z" transform="translate(-14 -14)" fill="#1701fe"></path></svg> 