<?xml version="1.0" encoding="UTF-8"?> <svg xmlns="http://www.w3.org/2000/svg" xmlns:xlink="http://www.w3.org/1999/xlink" width="148" height="159" viewBox="0 0 148 159"><defs><clipPath id="a"><rect width="148" height="159" transform="translate(0 0.632)" fill="#fff"></rect></clipPath></defs><g transform="translate(0 -0.632)" clip-path="url(#a)"><path d="M24.754,35.087C32.841,27.476,40.963,19.9,49,12.233c3.063-2.918,6.026-5.96,8.845-9.117a6.8,6.8,0,0,1,5.582-2.3c13.1.188,26.249-.883,39.281.71,9.418,1.151,17.805,5.308,25.161,11.492A53.709,53.709,0,0,1,146.247,42.5c4.05,17.039,1.123,32.413-8.924,46.678-7.028,9.972-16.588,16.127-27.681,20.218-2.619.963-4.837.746-7.271-1.687-10.383-10.406-21.125-20.45-31.631-30.74,1.989-2.44,3.406-1.868,4.6-1.883,6.2-.065,12.395.007,18.592-.036a20.077,20.077,0,0,0,18.234-12.73c3.335-9.081-2.261-20.689-11.371-24.136a22.511,22.511,0,0,0-8.251-1.325q-31.108.022-62.21.014H26.121c-.451-.594-.909-1.18-1.36-1.774Z" fill="#f3f3f3"></path><path d="M26.135,75.059c7.028,0,14.091.427,21.068-.159,4.43-.369,6.534,2.375,8.8,4.873,9.4,10.391,19.394,20.2,29.1,30.291,9.9,10.3,19.873,20.515,29.806,30.776q7.782,8.039,15.529,16.105c.544.565,1.56.971,1.2,2-.393,1.115-1.438.536-2.161.536-15.243.029-30.486,0-45.729.036a7.379,7.379,0,0,1-5.675-2.39Q60.9,139.268,43.639,121.5c-7.507-7.741-15.064-15.438-22.564-23.187Q11.36,88.264,1.767,78.093c-.651-.7-2.125-1.311-1.7-2.382.558-1.39,2.1-.608,3.192-.616,7.622-.058,15.243-.029,22.864-.036Z" fill="#f3f3f3"></path></g></svg> 