<?xml version="1.0" encoding="UTF-8"?> <svg xmlns="http://www.w3.org/2000/svg" width="191" height="57.341" viewBox="0 0 191 57.341"><path d="M110.94,42.116a4.355,4.355,0,0,0,.094-.841,2.459,2.459,0,0,0-.872-1.962,3.931,3.931,0,0,0-2.678-.778,6.292,6.292,0,0,0-1.4.156,3.741,3.741,0,0,0-1.215.5,2.42,2.42,0,0,0-.84.809,2.125,2.125,0,0,0-.312,1.152,1.97,1.97,0,0,0,.9,1.713,7.957,7.957,0,0,0,2.989.965,9.138,9.138,0,0,1,4.546,1.868,4.878,4.878,0,0,1,1.682,4.017,7.424,7.424,0,0,1-.654,3.176,6.6,6.6,0,0,1-1.806,2.4,7.92,7.92,0,0,1-2.8,1.526,12.1,12.1,0,0,1-3.706.529,10.643,10.643,0,0,1-3.425-.5,7.262,7.262,0,0,1-2.428-1.4,5.874,5.874,0,0,1-1.4-2.086,6.892,6.892,0,0,1-.467-2.553q0-.4.031-.81a6.338,6.338,0,0,1,.125-.841l.156-.716h4.11l-.125.529a6.534,6.534,0,0,0-.124,1.339,2.98,2.98,0,0,0,.934,2.335,4.251,4.251,0,0,0,2.865.841,5.354,5.354,0,0,0,3.207-.841,2.81,2.81,0,0,0,1.152-2.366,2.076,2.076,0,0,0-1-1.837,8.318,8.318,0,0,0-3.269-1,9.933,9.933,0,0,1-2.149-.56,6.157,6.157,0,0,1-1.837-1.121,5.515,5.515,0,0,1-1.307-1.744,5.8,5.8,0,0,1-.5-2.491,6.854,6.854,0,0,1,.529-2.709,5.989,5.989,0,0,1,1.619-2.179,7.538,7.538,0,0,1,2.647-1.432,11.5,11.5,0,0,1,3.643-.529,10.254,10.254,0,0,1,3.113.436,6.738,6.738,0,0,1,2.3,1.214,5.1,5.1,0,0,1,1.464,1.868,5.344,5.344,0,0,1,.5,2.3q0,.343-.031.685a6.539,6.539,0,0,1-.125.778l-.124.56h-4.11Z" fill="#373737"></path><path d="M118.889,35.11h15.693v3.923h-5.791l-3.8,17.872h-4.11l3.8-17.872h-5.792Z" fill="#373737"></path><path d="M136.865,43.579q.964-4.608,3.207-6.757a8.7,8.7,0,0,1,6.227-2.148,7.586,7.586,0,0,1,2.927.529,5.748,5.748,0,0,1,2.149,1.432,5.807,5.807,0,0,1,1.307,2.148,7.551,7.551,0,0,1,.468,2.678,8.952,8.952,0,0,1-.063,1.059,6.135,6.135,0,0,1-.155,1.059L151.9,48.436q-.965,4.608-3.238,6.757a8.587,8.587,0,0,1-6.2,2.148,8.007,8.007,0,0,1-2.927-.5,6.3,6.3,0,0,1-2.149-1.432,6.593,6.593,0,0,1-1.339-2.148,8.163,8.163,0,0,1-.436-2.709q0-.529.032-1.059a9.317,9.317,0,0,1,.186-1.059ZM142.843,53.6a4.41,4.41,0,0,0,1.868-.374,4.719,4.719,0,0,0,1.4-1.059,5.005,5.005,0,0,0,1-1.557,9.583,9.583,0,0,0,.623-1.931l1.152-5.355c.062-.332.1-.612.124-.841a4.309,4.309,0,0,0,.063-.716,3.4,3.4,0,0,0-.841-2.46,2.935,2.935,0,0,0-2.3-.9,4.121,4.121,0,0,0-1.868.4,4.656,4.656,0,0,0-1.433,1.028,5.9,5.9,0,0,0-1,1.557,11.087,11.087,0,0,0-.592,1.931l-1.152,5.355a7.246,7.246,0,0,0-.187,1.557,3.6,3.6,0,0,0,.81,2.491A3.091,3.091,0,0,0,142.843,53.6Z" fill="#373737"></path><path d="M168.354,56.905h-4.173l1.4-6.539a2.719,2.719,0,0,0,.062-.5,1.078,1.078,0,0,0-.343-.841,1.441,1.441,0,0,0-1.058-.343h-4.515l-1.744,8.22h-4.079l4.609-21.8h7.659a7.545,7.545,0,0,1,2.678.436,5.466,5.466,0,0,1,1.962,1.121A4.053,4.053,0,0,1,172,38.317a5.179,5.179,0,0,1,.4,2.024,6.074,6.074,0,0,1-1.059,3.705,6.232,6.232,0,0,1-3.176,2.117v.561a1.959,1.959,0,0,1,1.37.654,1.918,1.918,0,0,1,.5,1.37,3.207,3.207,0,0,1-.062.623ZM160.57,44.762h3.736a4.121,4.121,0,0,0,2.709-.872,2.9,2.9,0,0,0,1.059-2.366,2.483,2.483,0,0,0-.654-1.837,2.555,2.555,0,0,0-1.931-.654h-3.705Z" fill="#373737"></path><path d="M173.532,56.532l4.546-21.422H191v3.923h-9.653l-1.058,4.982h8.438v3.923h-9.279l-1.059,5.044h9.186v3.923H173.532Z" fill="#373737"></path><path d="M130.168,29.941c1.812-9.8,3.6-19.4,5.345-29.016.124-.682.324-.908,1.027-.9,5.221.031,10.445-.034,15.666.034a6.413,6.413,0,0,1,6.333,7.736c-.283,1.735-.576,3.468-.918,5.191a9.71,9.71,0,0,1-5.041,6.924c-.863.469-.911.853-.559,1.668,1.174,2.7,2.272,5.432,3.49,8.366-2.275,0-4.383.005-6.49-.005-.52,0-.525-.483-.664-.817-.952-2.291-1.925-4.576-2.831-6.885-.3-.77-.643-1.178-1.562-1.082-1.058.111-2.138-.008-3.206.039-.675.028-.9-.114-.731-.848.334-1.416.625-2.848.834-4.288.105-.719.4-.879,1.07-.866,2.182.042,4.367.023,6.549.013,2.02-.008,2.931-.812,3.292-2.833.226-1.266.5-2.524.715-3.79.3-1.735-.36-2.545-2.118-2.558-3-.026-5.993.036-8.989-.036-.839-.021-.993.361-1.109,1.007q-1.447,7.969-2.913,15.939-.567,3.1-1.135,6.2c-.087.475-.141.864-.836.838-1.706-.062-3.415-.021-5.224-.021Z" fill="#1701fe"></path><path d="M25.214,29.941c-2.146,0-4.115-.031-6.081.018-.654.016-.87-.288-1.083-.822-.942-2.343-1.979-4.646-2.869-7.007a1.259,1.259,0,0,0-1.49-.968c-1.109.065-2.226-.013-3.338.029-.582.021-.751-.166-.636-.732.306-1.512.6-3.025.867-4.545.1-.586.381-.734.955-.724,2.226.036,4.452.023,6.678.013a2.933,2.933,0,0,0,3.271-2.737c.257-1.346.5-2.7.744-4.047a1.832,1.832,0,0,0-1.915-2.394c-3.124-.039-6.251.01-9.375-.029-.713-.01-.842.35-.942.908Q8.066,17.532,6.112,28.154c-.324,1.787-.3,1.79-2.074,1.79-1.027,0-2.059-.062-3.08.018-1,.078-1.05-.272-.885-1.16Q2.631,15.152,5.077,1.483C5.278.363,5.613-.021,6.822,0,11.7.09,16.583.033,21.462.041c4.55.008,7.339,3.144,6.763,7.681-.237,1.868-.607,3.723-.991,5.567a9.694,9.694,0,0,1-5.111,6.724c-.677.371-.774.649-.476,1.344,1.2,2.783,2.331,5.6,3.567,8.587Z" fill="#1701fe"></path><path d="M82.751.116c-.342,1.759-.718,3.474-.991,5.207-.126.8-.633.643-1.119.643q-6.033,0-12.066,0a3.657,3.657,0,0,0-3.857,4.524,1.8,1.8,0,0,0,2.046,1.531q3.787-.012,7.573,0c5.015.008,7.658,3.365,6.881,8.377-.695,4.475-2.856,7.622-7.177,9.134a5.607,5.607,0,0,1-1.742.376c-5.687.028-11.374.016-17.182.016.45-1.816.924-3.544,1.294-5.292.175-.822.736-.568,1.186-.571,4.622-.016,9.246-.109,13.863.023,3.333.1,3.837-2.2,3.8-4.672-.015-1.165-1.032-1.453-2.056-1.455-2.44-.005-4.879,0-7.319,0-5.191,0-7.854-3.357-7-8.488.654-3.93,2.445-6.89,6.081-8.613A7.819,7.819,0,0,1,68.3.04c4.622-.013,9.243-.005,13.865,0a4.857,4.857,0,0,1,.579.075Z" fill="#1701fe"></path><path d="M127.818,24.054c-.337,1.813-.677,3.492-.947,5.183-.085.524-.244.721-.792.719-4.151-.023-8.307.1-12.456-.057-3.97-.145-6.5-3.824-5.733-8.1q1.231-6.9,2.558-13.778A10.017,10.017,0,0,1,120.16.042c4.017-.008,8.034,0,12.131,0-.343,1.8-.7,3.474-.96,5.162-.1.68-.4.783-1,.778-3.6-.023-7.19-.016-10.785-.01-1.989,0-2.9.737-3.283,2.677-.222,1.123-.955,2.485-.371,3.3.373.521,2.005.161,3.073.156,3.337-.018,6.675-.021,10.01-.1.934-.023,1.081.3.906,1.11-.281,1.3-.551,2.6-.723,3.917-.1.786-.458.949-1.181.944-4.11-.031-8.22.023-12.327-.044-.954-.016-1.286.316-1.379,1.18-.08.721-.234,1.437-.376,2.151-.4,2.01.232,2.786,2.316,2.791C120.018,24.062,123.824,24.054,127.818,24.054Z" fill="#1701fe"></path><path d="M39.2.038c-1.325,7.124-2.627,14.149-3.94,21.171-.383,2.047.221,2.83,2.27,2.841,2.095.013,4.192.023,6.287-.005A2.677,2.677,0,0,0,46.757,21.6q1.93-10.16,3.783-20.336c.162-.9.4-1.323,1.42-1.256,1.567.1,3.147.029,4.776.029-1.4,7.526-2.72,14.948-4.182,22.341a9.854,9.854,0,0,1-9.365,7.562q-3.721.012-7.442,0c-4.285-.015-7.213-3.222-6.531-7.489.952-5.961,2.146-11.884,3.235-17.825.216-1.178.471-2.353.636-3.538.1-.742.3-1.123,1.184-1.074C35.887.1,37.511.038,39.2.038Z" fill="#1701fe"></path><path d="M94.1,5.969H84.45c.347-1.85.692-3.6.993-5.365.072-.42.224-.573.646-.573,7.823.008,15.646.005,23.559.005-.342,1.813-.71,3.523-.97,5.251-.1.667-.424.69-.939.687-2.311-.016-4.619.013-6.93-.021-.633-.008-.854.176-.975.835C98.5,14.164,97.1,21.529,95.76,28.9c-.136.755-.337,1.105-1.2,1.061-1.616-.083-3.24-.023-4.913-.023,1.487-8.021,2.954-15.933,4.444-23.973Z" fill="#1701fe"></path></svg> 