<?xml version="1.0" encoding="utf-8"?>
<!-- Generator: Adobe Illustrator 28.0.0, SVG Export Plug-In . SVG Version: 6.00 Build 0)  -->
<svg version="1.1" id="Outline" xmlns="http://www.w3.org/2000/svg" xmlns:xlink="http://www.w3.org/1999/xlink" x="0px" y="0px"
	 viewBox="0 0 48 48" enable-background="new 0 0 48 48" xml:space="preserve">
<g>
	<path d="M23.84082,24.9873C23.89355,24.99609,23.94727,25,24,25s0.10645-0.00391,0.15918-0.0127
		C29.28125,24.16406,33,19.7998,33,14.61133V9c0-0.55078-0.44727-0.99805-0.99805-1c-0.04688,0-4.63281-0.04492-7.29492-2.70703
		c-0.39062-0.39062-1.02344-0.39062-1.41406,0C20.63086,7.95508,16.04492,8,15.99805,8C15.44727,8.00195,15,8.44922,15,9v5.61133
		C15,19.7998,18.71875,24.16406,23.84082,24.9873z M17,9.94336c1.55859-0.14941,4.62305-0.68262,7-2.60156
		c2.37695,1.91895,5.44141,2.45215,7,2.60156v4.66797c0,4.14746-2.93457,7.64355-7,8.37402c-4.06543-0.73047-7-4.22656-7-8.37402
		V9.94336z"/>
	<path d="M37,27H11c-1.6543,0-3,1.3457-3,3v10c0,1.6543,1.3457,3,3,3h26c1.6543,0,3-1.3457,3-3V30C40,28.3457,38.6543,27,37,27z
		 M38,40c0,0.55176-0.44824,1-1,1H11c-0.55176,0-1-0.44824-1-1V30c0-0.55176,0.44824-1,1-1h26c0.55176,0,1,0.44824,1,1V40z"/>
	<path d="M16.75,31H15c-0.55273,0-1,0.44727-1,1v6c0,0.55273,0.44727,1,1,1s1-0.44727,1-1v-1.5h0.75c1.5166,0,2.75-1.2334,2.75-2.75
		S18.2666,31,16.75,31z M16.75,34.5H16V33h0.75c0.41309,0,0.75,0.33691,0.75,0.75S17.16309,34.5,16.75,34.5z"/>
	<path d="M24.42285,31.61523C24.26758,31.24316,23.90332,31,23.5,31s-0.76758,0.24316-0.92285,0.61523l-2.5,6
		c-0.21289,0.50977,0.02832,1.0957,0.53809,1.30762c0.50977,0.21289,1.09473-0.02734,1.30762-0.53809L22.08319,38h2.83362
		c0,0,0.16034,0.38477,0.16035,0.38479c0.21143,0.50663,0.80277,0.74939,1.30761,0.53806
		c0.50977-0.21191,0.75098-0.79785,0.53809-1.30762L24.42285,31.61523z M22.9165,36L23.5,34.59961L24.0835,36H22.9165z"/>
	<path d="M32.23145,31.35938L30.5,33.4375l-1.73145-2.07812c-0.35352-0.42383-0.9834-0.48047-1.40918-0.12793
		c-0.42383,0.35352-0.48145,0.98438-0.12793,1.40918L29.5,35.36292V38c0,0.55273,0.44727,1,1,1s1-0.44727,1-1v-2.63708
		l2.26855-2.72229c0.35352-0.4248,0.2959-1.05566-0.12793-1.40918C33.21484,30.87891,32.58496,30.93555,32.23145,31.35938z"/>
	<path d="M22.29297,18.20703C22.48828,18.40234,22.74414,18.5,23,18.5s0.51172-0.09766,0.70703-0.29297l4.5-4.5
		c0.39062-0.39062,0.39062-1.02344,0-1.41406s-1.02344-0.39062-1.41406,0L23,16.08594l-1.79297-1.79297
		c-0.39062-0.39062-1.02344-0.39062-1.41406,0s-0.39062,1.02344,0,1.41406L22.29297,18.20703z"/>
</g>
</svg>
