<?xml version="1.0" encoding="UTF-8"?> <svg xmlns="http://www.w3.org/2000/svg" width="30" height="30" viewBox="0 0 30 30"><g transform="translate(-1 -1.508)"><path d="M7.5,7.508H7a1,1,0,1,0,0,2h.5a1,1,0,1,0,0-2Z" fill="#373737"></path><path d="M28,15.818v-5.31a3.009,3.009,0,0,0-3-3H19v-5a1,1,0,0,0-1-1H4a3.009,3.009,0,0,0-3,3v20a3.009,3.009,0,0,0,3,3H14.52A8.994,8.994,0,1,0,28,15.818ZM3,24.508v-10H7a1,1,0,0,1,1,1v10H4A1,1,0,0,1,3,24.508Zm7,1v-10a3.009,3.009,0,0,0-3-3H3v-8a1,1,0,0,1,1-1H17v4H11a1,1,0,1,0,0,2H25a1,1,0,0,1,1,1v3.95a8.98,8.98,0,0,0-13,8.05,8.805,8.805,0,0,0,.53,3Zm12,4a7,7,0,1,1,7-7A7.008,7.008,0,0,1,22,29.508Z" fill="#373737"></path><path d="M21.33,20.838H24a1,1,0,0,0,0-2H23v-.33a1,1,0,0,0-2,0v.37a2.327,2.327,0,0,0,.33,4.63h1.33a.33.33,0,0,1,0,.66H19.99a1,1,0,0,0,0,2h1v.33a1,1,0,0,0,2,0v-.37a2.327,2.327,0,0,0-.33-4.63H21.33a.33.33,0,0,1,0-.66Z" fill="#373737"></path><path d="M5.5,16.508a1,1,0,0,0-1,1v5a1,1,0,0,0,2,0v-5A1,1,0,0,0,5.5,16.508Z" fill="#373737"></path></g></svg> 