<?xml version="1.0" encoding="UTF-8"?> <svg xmlns="http://www.w3.org/2000/svg" xmlns:xlink="http://www.w3.org/1999/xlink" width="348" height="373" viewBox="0 0 348 373"><defs><clipPath id="a"><rect width="348" height="373" transform="translate(0 0.174)" fill="#fff"></rect></clipPath></defs><g transform="translate(0 -0.174)" clip-path="url(#a)"><path d="M58.205,81c19.014-17.854,38.113-35.623,57.01-53.613,7.2-6.846,14.168-13.981,20.8-21.388,3.7-4.145,8.044-5.47,13.125-5.4,30.794.442,61.722-2.073,92.364,1.665,22.144,2.7,41.866,12.452,59.164,26.96C322.541,47.57,337.147,70.146,343.878,98.4c9.524,39.972,2.642,76.037-20.984,109.5-16.524,23.392-39.005,37.832-65.087,47.43-6.158,2.259-11.375,1.75-17.1-3.958-24.416-24.412-49.673-47.974-74.375-72.113,4.678-5.725,8.009-4.383,10.819-4.417,14.573-.153,29.145.017,43.717-.085,18.644-.136,36.548-12.673,42.875-29.865,7.842-21.3-5.317-48.534-26.738-56.62a53.044,53.044,0,0,0-19.4-3.109q-73.147.051-146.278.034H61.419c-1.06-1.393-2.137-2.769-3.2-4.162Z" fill="rgba(255,255,255,0.4)"></path><path d="M61.453,174.774c16.524,0,33.132,1,49.539-.374,10.415-.866,15.363,5.572,20.7,11.433,22.111,24.378,45.6,47.4,68.419,71.06,23.271,24.156,46.728,48.126,70.084,72.2q18.3,18.856,36.515,37.781c1.279,1.325,3.668,2.276,2.827,4.688-.926,2.616-3.382,1.257-5.082,1.257-35.842.068-71.683,0-107.525.085a17.37,17.37,0,0,1-13.344-5.606Q143.2,325.4,102.612,283.717c-17.652-18.16-35.421-36.218-53.056-54.4q-22.843-23.571-45.4-47.43c-1.531-1.631-5-3.075-3.988-5.589,1.313-3.262,4.947-1.427,7.5-1.444,17.921-.136,35.842-.068,53.762-.085Z" fill="rgba(255,255,255,0.4)"></path></g></svg> 